G04 #@! TF.GenerationSoftware,KiCad,Pcbnew,(5.0.1)-3*
G04 #@! TF.CreationDate,2019-05-30T19:07:58-06:00*
G04 #@! TF.ProjectId,oMIDItone V2,6F4D494449746F6E652056322E6B6963,rev?*
G04 #@! TF.SameCoordinates,Original*
G04 #@! TF.FileFunction,Soldermask,Bot*
G04 #@! TF.FilePolarity,Negative*
%FSLAX46Y46*%
G04 Gerber Fmt 4.6, Leading zero omitted, Abs format (unit mm)*
G04 Created by KiCad (PCBNEW (5.0.1)-3) date 2019-05-30 7:07:58 PM*
%MOMM*%
%LPD*%
G01*
G04 APERTURE LIST*
%ADD10C,0.100000*%
G04 APERTURE END LIST*
D10*
G36*
X138049941Y-149466248D02*
X138049943Y-149466249D01*
X138049944Y-149466249D01*
X138605190Y-149696239D01*
X138605191Y-149696240D01*
X139104902Y-150030136D01*
X139529864Y-150455098D01*
X139529866Y-150455101D01*
X139863761Y-150954810D01*
X140093751Y-151510056D01*
X140093752Y-151510059D01*
X140211000Y-152099501D01*
X140211000Y-152700499D01*
X140184511Y-152833668D01*
X140093751Y-153289944D01*
X139863761Y-153845190D01*
X139796021Y-153946570D01*
X139529864Y-154344902D01*
X139104902Y-154769864D01*
X139104899Y-154769866D01*
X138605190Y-155103761D01*
X138049944Y-155333751D01*
X138049943Y-155333751D01*
X138049941Y-155333752D01*
X137460499Y-155451000D01*
X136859501Y-155451000D01*
X136270059Y-155333752D01*
X136270057Y-155333751D01*
X136270056Y-155333751D01*
X135714810Y-155103761D01*
X135215101Y-154769866D01*
X135215098Y-154769864D01*
X134790136Y-154344902D01*
X134523979Y-153946570D01*
X134456239Y-153845190D01*
X134226249Y-153289944D01*
X134135490Y-152833668D01*
X134109000Y-152700499D01*
X134109000Y-152099501D01*
X134226248Y-151510059D01*
X134226249Y-151510056D01*
X134456239Y-150954810D01*
X134790134Y-150455101D01*
X134790136Y-150455098D01*
X135215098Y-150030136D01*
X135714809Y-149696240D01*
X135714810Y-149696239D01*
X136270056Y-149466249D01*
X136270057Y-149466249D01*
X136270059Y-149466248D01*
X136859501Y-149349000D01*
X137460499Y-149349000D01*
X138049941Y-149466248D01*
X138049941Y-149466248D01*
G37*
G36*
X44069941Y-149466248D02*
X44069943Y-149466249D01*
X44069944Y-149466249D01*
X44625190Y-149696239D01*
X44625191Y-149696240D01*
X45124902Y-150030136D01*
X45549864Y-150455098D01*
X45549866Y-150455101D01*
X45883761Y-150954810D01*
X46113751Y-151510056D01*
X46113752Y-151510059D01*
X46231000Y-152099501D01*
X46231000Y-152700499D01*
X46204511Y-152833668D01*
X46113751Y-153289944D01*
X45883761Y-153845190D01*
X45816021Y-153946570D01*
X45549864Y-154344902D01*
X45124902Y-154769864D01*
X45124899Y-154769866D01*
X44625190Y-155103761D01*
X44069944Y-155333751D01*
X44069943Y-155333751D01*
X44069941Y-155333752D01*
X43480499Y-155451000D01*
X42879501Y-155451000D01*
X42290059Y-155333752D01*
X42290057Y-155333751D01*
X42290056Y-155333751D01*
X41734810Y-155103761D01*
X41235101Y-154769866D01*
X41235098Y-154769864D01*
X40810136Y-154344902D01*
X40543979Y-153946570D01*
X40476239Y-153845190D01*
X40246249Y-153289944D01*
X40155490Y-152833668D01*
X40129000Y-152700499D01*
X40129000Y-152099501D01*
X40246248Y-151510059D01*
X40246249Y-151510056D01*
X40476239Y-150954810D01*
X40810134Y-150455101D01*
X40810136Y-150455098D01*
X41235098Y-150030136D01*
X41734809Y-149696240D01*
X41734810Y-149696239D01*
X42290056Y-149466249D01*
X42290057Y-149466249D01*
X42290059Y-149466248D01*
X42879501Y-149349000D01*
X43480499Y-149349000D01*
X44069941Y-149466248D01*
X44069941Y-149466248D01*
G37*
G36*
X139331000Y-127901000D02*
X137529000Y-127901000D01*
X137529000Y-126099000D01*
X139331000Y-126099000D01*
X139331000Y-127901000D01*
X139331000Y-127901000D01*
G37*
G36*
X138540442Y-123565518D02*
X138606627Y-123572037D01*
X138719853Y-123606384D01*
X138776467Y-123623557D01*
X138915087Y-123697652D01*
X138932991Y-123707222D01*
X138968729Y-123736552D01*
X139070186Y-123819814D01*
X139153448Y-123921271D01*
X139182778Y-123957009D01*
X139182779Y-123957011D01*
X139266443Y-124113533D01*
X139266443Y-124113534D01*
X139317963Y-124283373D01*
X139335359Y-124460000D01*
X139317963Y-124636627D01*
X139283616Y-124749853D01*
X139266443Y-124806467D01*
X139192348Y-124945087D01*
X139182778Y-124962991D01*
X139153448Y-124998729D01*
X139070186Y-125100186D01*
X138968729Y-125183448D01*
X138932991Y-125212778D01*
X138932989Y-125212779D01*
X138776467Y-125296443D01*
X138719853Y-125313616D01*
X138606627Y-125347963D01*
X138540442Y-125354482D01*
X138474260Y-125361000D01*
X138385740Y-125361000D01*
X138319558Y-125354482D01*
X138253373Y-125347963D01*
X138140147Y-125313616D01*
X138083533Y-125296443D01*
X137927011Y-125212779D01*
X137927009Y-125212778D01*
X137891271Y-125183448D01*
X137789814Y-125100186D01*
X137706552Y-124998729D01*
X137677222Y-124962991D01*
X137667652Y-124945087D01*
X137593557Y-124806467D01*
X137576384Y-124749853D01*
X137542037Y-124636627D01*
X137524641Y-124460000D01*
X137542037Y-124283373D01*
X137593557Y-124113534D01*
X137593557Y-124113533D01*
X137677221Y-123957011D01*
X137677222Y-123957009D01*
X137706552Y-123921271D01*
X137789814Y-123819814D01*
X137891271Y-123736552D01*
X137927009Y-123707222D01*
X137944913Y-123697652D01*
X138083533Y-123623557D01*
X138140147Y-123606384D01*
X138253373Y-123572037D01*
X138319558Y-123565518D01*
X138385740Y-123559000D01*
X138474260Y-123559000D01*
X138540442Y-123565518D01*
X138540442Y-123565518D01*
G37*
G36*
X49640442Y-121025518D02*
X49706627Y-121032037D01*
X49819853Y-121066384D01*
X49876467Y-121083557D01*
X50015087Y-121157652D01*
X50032991Y-121167222D01*
X50068729Y-121196552D01*
X50170186Y-121279814D01*
X50253448Y-121381271D01*
X50282778Y-121417009D01*
X50282779Y-121417011D01*
X50366443Y-121573533D01*
X50366443Y-121573534D01*
X50417963Y-121743373D01*
X50435359Y-121920000D01*
X50417963Y-122096627D01*
X50383616Y-122209853D01*
X50366443Y-122266467D01*
X50292348Y-122405087D01*
X50282778Y-122422991D01*
X50253448Y-122458729D01*
X50170186Y-122560186D01*
X50068729Y-122643448D01*
X50032991Y-122672778D01*
X50032989Y-122672779D01*
X49876467Y-122756443D01*
X49819853Y-122773616D01*
X49706627Y-122807963D01*
X49640443Y-122814481D01*
X49574260Y-122821000D01*
X49485740Y-122821000D01*
X49419557Y-122814481D01*
X49353373Y-122807963D01*
X49240147Y-122773616D01*
X49183533Y-122756443D01*
X49027011Y-122672779D01*
X49027009Y-122672778D01*
X48991271Y-122643448D01*
X48889814Y-122560186D01*
X48806552Y-122458729D01*
X48777222Y-122422991D01*
X48767652Y-122405087D01*
X48693557Y-122266467D01*
X48676384Y-122209853D01*
X48642037Y-122096627D01*
X48624641Y-121920000D01*
X48642037Y-121743373D01*
X48693557Y-121573534D01*
X48693557Y-121573533D01*
X48777221Y-121417011D01*
X48777222Y-121417009D01*
X48806552Y-121381271D01*
X48889814Y-121279814D01*
X48991271Y-121196552D01*
X49027009Y-121167222D01*
X49044913Y-121157652D01*
X49183533Y-121083557D01*
X49240147Y-121066384D01*
X49353373Y-121032037D01*
X49419558Y-121025518D01*
X49485740Y-121019000D01*
X49574260Y-121019000D01*
X49640442Y-121025518D01*
X49640442Y-121025518D01*
G37*
G36*
X52180442Y-121025518D02*
X52246627Y-121032037D01*
X52359853Y-121066384D01*
X52416467Y-121083557D01*
X52555087Y-121157652D01*
X52572991Y-121167222D01*
X52608729Y-121196552D01*
X52710186Y-121279814D01*
X52793448Y-121381271D01*
X52822778Y-121417009D01*
X52822779Y-121417011D01*
X52906443Y-121573533D01*
X52906443Y-121573534D01*
X52957963Y-121743373D01*
X52975359Y-121920000D01*
X52957963Y-122096627D01*
X52923616Y-122209853D01*
X52906443Y-122266467D01*
X52832348Y-122405087D01*
X52822778Y-122422991D01*
X52793448Y-122458729D01*
X52710186Y-122560186D01*
X52608729Y-122643448D01*
X52572991Y-122672778D01*
X52572989Y-122672779D01*
X52416467Y-122756443D01*
X52359853Y-122773616D01*
X52246627Y-122807963D01*
X52180443Y-122814481D01*
X52114260Y-122821000D01*
X52025740Y-122821000D01*
X51959557Y-122814481D01*
X51893373Y-122807963D01*
X51780147Y-122773616D01*
X51723533Y-122756443D01*
X51567011Y-122672779D01*
X51567009Y-122672778D01*
X51531271Y-122643448D01*
X51429814Y-122560186D01*
X51346552Y-122458729D01*
X51317222Y-122422991D01*
X51307652Y-122405087D01*
X51233557Y-122266467D01*
X51216384Y-122209853D01*
X51182037Y-122096627D01*
X51164641Y-121920000D01*
X51182037Y-121743373D01*
X51233557Y-121573534D01*
X51233557Y-121573533D01*
X51317221Y-121417011D01*
X51317222Y-121417009D01*
X51346552Y-121381271D01*
X51429814Y-121279814D01*
X51531271Y-121196552D01*
X51567009Y-121167222D01*
X51584913Y-121157652D01*
X51723533Y-121083557D01*
X51780147Y-121066384D01*
X51893373Y-121032037D01*
X51959558Y-121025518D01*
X52025740Y-121019000D01*
X52114260Y-121019000D01*
X52180442Y-121025518D01*
X52180442Y-121025518D01*
G37*
G36*
X54720442Y-121025518D02*
X54786627Y-121032037D01*
X54899853Y-121066384D01*
X54956467Y-121083557D01*
X55095087Y-121157652D01*
X55112991Y-121167222D01*
X55148729Y-121196552D01*
X55250186Y-121279814D01*
X55333448Y-121381271D01*
X55362778Y-121417009D01*
X55362779Y-121417011D01*
X55446443Y-121573533D01*
X55446443Y-121573534D01*
X55497963Y-121743373D01*
X55515359Y-121920000D01*
X55497963Y-122096627D01*
X55463616Y-122209853D01*
X55446443Y-122266467D01*
X55372348Y-122405087D01*
X55362778Y-122422991D01*
X55333448Y-122458729D01*
X55250186Y-122560186D01*
X55148729Y-122643448D01*
X55112991Y-122672778D01*
X55112989Y-122672779D01*
X54956467Y-122756443D01*
X54899853Y-122773616D01*
X54786627Y-122807963D01*
X54720443Y-122814481D01*
X54654260Y-122821000D01*
X54565740Y-122821000D01*
X54499557Y-122814481D01*
X54433373Y-122807963D01*
X54320147Y-122773616D01*
X54263533Y-122756443D01*
X54107011Y-122672779D01*
X54107009Y-122672778D01*
X54071271Y-122643448D01*
X53969814Y-122560186D01*
X53886552Y-122458729D01*
X53857222Y-122422991D01*
X53847652Y-122405087D01*
X53773557Y-122266467D01*
X53756384Y-122209853D01*
X53722037Y-122096627D01*
X53704641Y-121920000D01*
X53722037Y-121743373D01*
X53773557Y-121573534D01*
X53773557Y-121573533D01*
X53857221Y-121417011D01*
X53857222Y-121417009D01*
X53886552Y-121381271D01*
X53969814Y-121279814D01*
X54071271Y-121196552D01*
X54107009Y-121167222D01*
X54124913Y-121157652D01*
X54263533Y-121083557D01*
X54320147Y-121066384D01*
X54433373Y-121032037D01*
X54499558Y-121025518D01*
X54565740Y-121019000D01*
X54654260Y-121019000D01*
X54720442Y-121025518D01*
X54720442Y-121025518D01*
G37*
G36*
X85200442Y-121025518D02*
X85266627Y-121032037D01*
X85379853Y-121066384D01*
X85436467Y-121083557D01*
X85575087Y-121157652D01*
X85592991Y-121167222D01*
X85628729Y-121196552D01*
X85730186Y-121279814D01*
X85813448Y-121381271D01*
X85842778Y-121417009D01*
X85842779Y-121417011D01*
X85926443Y-121573533D01*
X85926443Y-121573534D01*
X85977963Y-121743373D01*
X85995359Y-121920000D01*
X85977963Y-122096627D01*
X85943616Y-122209853D01*
X85926443Y-122266467D01*
X85852348Y-122405087D01*
X85842778Y-122422991D01*
X85813448Y-122458729D01*
X85730186Y-122560186D01*
X85628729Y-122643448D01*
X85592991Y-122672778D01*
X85592989Y-122672779D01*
X85436467Y-122756443D01*
X85379853Y-122773616D01*
X85266627Y-122807963D01*
X85200443Y-122814481D01*
X85134260Y-122821000D01*
X85045740Y-122821000D01*
X84979557Y-122814481D01*
X84913373Y-122807963D01*
X84800147Y-122773616D01*
X84743533Y-122756443D01*
X84587011Y-122672779D01*
X84587009Y-122672778D01*
X84551271Y-122643448D01*
X84449814Y-122560186D01*
X84366552Y-122458729D01*
X84337222Y-122422991D01*
X84327652Y-122405087D01*
X84253557Y-122266467D01*
X84236384Y-122209853D01*
X84202037Y-122096627D01*
X84184641Y-121920000D01*
X84202037Y-121743373D01*
X84253557Y-121573534D01*
X84253557Y-121573533D01*
X84337221Y-121417011D01*
X84337222Y-121417009D01*
X84366552Y-121381271D01*
X84449814Y-121279814D01*
X84551271Y-121196552D01*
X84587009Y-121167222D01*
X84604913Y-121157652D01*
X84743533Y-121083557D01*
X84800147Y-121066384D01*
X84913373Y-121032037D01*
X84979558Y-121025518D01*
X85045740Y-121019000D01*
X85134260Y-121019000D01*
X85200442Y-121025518D01*
X85200442Y-121025518D01*
G37*
G36*
X87740442Y-121025518D02*
X87806627Y-121032037D01*
X87919853Y-121066384D01*
X87976467Y-121083557D01*
X88115087Y-121157652D01*
X88132991Y-121167222D01*
X88168729Y-121196552D01*
X88270186Y-121279814D01*
X88353448Y-121381271D01*
X88382778Y-121417009D01*
X88382779Y-121417011D01*
X88466443Y-121573533D01*
X88466443Y-121573534D01*
X88517963Y-121743373D01*
X88535359Y-121920000D01*
X88517963Y-122096627D01*
X88483616Y-122209853D01*
X88466443Y-122266467D01*
X88392348Y-122405087D01*
X88382778Y-122422991D01*
X88353448Y-122458729D01*
X88270186Y-122560186D01*
X88168729Y-122643448D01*
X88132991Y-122672778D01*
X88132989Y-122672779D01*
X87976467Y-122756443D01*
X87919853Y-122773616D01*
X87806627Y-122807963D01*
X87740443Y-122814481D01*
X87674260Y-122821000D01*
X87585740Y-122821000D01*
X87519557Y-122814481D01*
X87453373Y-122807963D01*
X87340147Y-122773616D01*
X87283533Y-122756443D01*
X87127011Y-122672779D01*
X87127009Y-122672778D01*
X87091271Y-122643448D01*
X86989814Y-122560186D01*
X86906552Y-122458729D01*
X86877222Y-122422991D01*
X86867652Y-122405087D01*
X86793557Y-122266467D01*
X86776384Y-122209853D01*
X86742037Y-122096627D01*
X86724641Y-121920000D01*
X86742037Y-121743373D01*
X86793557Y-121573534D01*
X86793557Y-121573533D01*
X86877221Y-121417011D01*
X86877222Y-121417009D01*
X86906552Y-121381271D01*
X86989814Y-121279814D01*
X87091271Y-121196552D01*
X87127009Y-121167222D01*
X87144913Y-121157652D01*
X87283533Y-121083557D01*
X87340147Y-121066384D01*
X87453373Y-121032037D01*
X87519558Y-121025518D01*
X87585740Y-121019000D01*
X87674260Y-121019000D01*
X87740442Y-121025518D01*
X87740442Y-121025518D01*
G37*
G36*
X90280442Y-121025518D02*
X90346627Y-121032037D01*
X90459853Y-121066384D01*
X90516467Y-121083557D01*
X90655087Y-121157652D01*
X90672991Y-121167222D01*
X90708729Y-121196552D01*
X90810186Y-121279814D01*
X90893448Y-121381271D01*
X90922778Y-121417009D01*
X90922779Y-121417011D01*
X91006443Y-121573533D01*
X91006443Y-121573534D01*
X91057963Y-121743373D01*
X91075359Y-121920000D01*
X91057963Y-122096627D01*
X91023616Y-122209853D01*
X91006443Y-122266467D01*
X90932348Y-122405087D01*
X90922778Y-122422991D01*
X90893448Y-122458729D01*
X90810186Y-122560186D01*
X90708729Y-122643448D01*
X90672991Y-122672778D01*
X90672989Y-122672779D01*
X90516467Y-122756443D01*
X90459853Y-122773616D01*
X90346627Y-122807963D01*
X90280443Y-122814481D01*
X90214260Y-122821000D01*
X90125740Y-122821000D01*
X90059557Y-122814481D01*
X89993373Y-122807963D01*
X89880147Y-122773616D01*
X89823533Y-122756443D01*
X89667011Y-122672779D01*
X89667009Y-122672778D01*
X89631271Y-122643448D01*
X89529814Y-122560186D01*
X89446552Y-122458729D01*
X89417222Y-122422991D01*
X89407652Y-122405087D01*
X89333557Y-122266467D01*
X89316384Y-122209853D01*
X89282037Y-122096627D01*
X89264641Y-121920000D01*
X89282037Y-121743373D01*
X89333557Y-121573534D01*
X89333557Y-121573533D01*
X89417221Y-121417011D01*
X89417222Y-121417009D01*
X89446552Y-121381271D01*
X89529814Y-121279814D01*
X89631271Y-121196552D01*
X89667009Y-121167222D01*
X89684913Y-121157652D01*
X89823533Y-121083557D01*
X89880147Y-121066384D01*
X89993373Y-121032037D01*
X90059558Y-121025518D01*
X90125740Y-121019000D01*
X90214260Y-121019000D01*
X90280442Y-121025518D01*
X90280442Y-121025518D01*
G37*
G36*
X92820442Y-121025518D02*
X92886627Y-121032037D01*
X92999853Y-121066384D01*
X93056467Y-121083557D01*
X93195087Y-121157652D01*
X93212991Y-121167222D01*
X93248729Y-121196552D01*
X93350186Y-121279814D01*
X93433448Y-121381271D01*
X93462778Y-121417009D01*
X93462779Y-121417011D01*
X93546443Y-121573533D01*
X93546443Y-121573534D01*
X93597963Y-121743373D01*
X93615359Y-121920000D01*
X93597963Y-122096627D01*
X93563616Y-122209853D01*
X93546443Y-122266467D01*
X93472348Y-122405087D01*
X93462778Y-122422991D01*
X93433448Y-122458729D01*
X93350186Y-122560186D01*
X93248729Y-122643448D01*
X93212991Y-122672778D01*
X93212989Y-122672779D01*
X93056467Y-122756443D01*
X92999853Y-122773616D01*
X92886627Y-122807963D01*
X92820443Y-122814481D01*
X92754260Y-122821000D01*
X92665740Y-122821000D01*
X92599557Y-122814481D01*
X92533373Y-122807963D01*
X92420147Y-122773616D01*
X92363533Y-122756443D01*
X92207011Y-122672779D01*
X92207009Y-122672778D01*
X92171271Y-122643448D01*
X92069814Y-122560186D01*
X91986552Y-122458729D01*
X91957222Y-122422991D01*
X91947652Y-122405087D01*
X91873557Y-122266467D01*
X91856384Y-122209853D01*
X91822037Y-122096627D01*
X91804641Y-121920000D01*
X91822037Y-121743373D01*
X91873557Y-121573534D01*
X91873557Y-121573533D01*
X91957221Y-121417011D01*
X91957222Y-121417009D01*
X91986552Y-121381271D01*
X92069814Y-121279814D01*
X92171271Y-121196552D01*
X92207009Y-121167222D01*
X92224913Y-121157652D01*
X92363533Y-121083557D01*
X92420147Y-121066384D01*
X92533373Y-121032037D01*
X92599558Y-121025518D01*
X92665740Y-121019000D01*
X92754260Y-121019000D01*
X92820442Y-121025518D01*
X92820442Y-121025518D01*
G37*
G36*
X120760442Y-121025518D02*
X120826627Y-121032037D01*
X120939853Y-121066384D01*
X120996467Y-121083557D01*
X121135087Y-121157652D01*
X121152991Y-121167222D01*
X121188729Y-121196552D01*
X121290186Y-121279814D01*
X121373448Y-121381271D01*
X121402778Y-121417009D01*
X121402779Y-121417011D01*
X121486443Y-121573533D01*
X121486443Y-121573534D01*
X121537963Y-121743373D01*
X121555359Y-121920000D01*
X121537963Y-122096627D01*
X121503616Y-122209853D01*
X121486443Y-122266467D01*
X121412348Y-122405087D01*
X121402778Y-122422991D01*
X121373448Y-122458729D01*
X121290186Y-122560186D01*
X121188729Y-122643448D01*
X121152991Y-122672778D01*
X121152989Y-122672779D01*
X120996467Y-122756443D01*
X120939853Y-122773616D01*
X120826627Y-122807963D01*
X120760443Y-122814481D01*
X120694260Y-122821000D01*
X120605740Y-122821000D01*
X120539557Y-122814481D01*
X120473373Y-122807963D01*
X120360147Y-122773616D01*
X120303533Y-122756443D01*
X120147011Y-122672779D01*
X120147009Y-122672778D01*
X120111271Y-122643448D01*
X120009814Y-122560186D01*
X119926552Y-122458729D01*
X119897222Y-122422991D01*
X119887652Y-122405087D01*
X119813557Y-122266467D01*
X119796384Y-122209853D01*
X119762037Y-122096627D01*
X119744641Y-121920000D01*
X119762037Y-121743373D01*
X119813557Y-121573534D01*
X119813557Y-121573533D01*
X119897221Y-121417011D01*
X119897222Y-121417009D01*
X119926552Y-121381271D01*
X120009814Y-121279814D01*
X120111271Y-121196552D01*
X120147009Y-121167222D01*
X120164913Y-121157652D01*
X120303533Y-121083557D01*
X120360147Y-121066384D01*
X120473373Y-121032037D01*
X120539558Y-121025518D01*
X120605740Y-121019000D01*
X120694260Y-121019000D01*
X120760442Y-121025518D01*
X120760442Y-121025518D01*
G37*
G36*
X123300442Y-121025518D02*
X123366627Y-121032037D01*
X123479853Y-121066384D01*
X123536467Y-121083557D01*
X123675087Y-121157652D01*
X123692991Y-121167222D01*
X123728729Y-121196552D01*
X123830186Y-121279814D01*
X123913448Y-121381271D01*
X123942778Y-121417009D01*
X123942779Y-121417011D01*
X124026443Y-121573533D01*
X124026443Y-121573534D01*
X124077963Y-121743373D01*
X124095359Y-121920000D01*
X124077963Y-122096627D01*
X124043616Y-122209853D01*
X124026443Y-122266467D01*
X123952348Y-122405087D01*
X123942778Y-122422991D01*
X123913448Y-122458729D01*
X123830186Y-122560186D01*
X123728729Y-122643448D01*
X123692991Y-122672778D01*
X123692989Y-122672779D01*
X123536467Y-122756443D01*
X123479853Y-122773616D01*
X123366627Y-122807963D01*
X123300443Y-122814481D01*
X123234260Y-122821000D01*
X123145740Y-122821000D01*
X123079557Y-122814481D01*
X123013373Y-122807963D01*
X122900147Y-122773616D01*
X122843533Y-122756443D01*
X122687011Y-122672779D01*
X122687009Y-122672778D01*
X122651271Y-122643448D01*
X122549814Y-122560186D01*
X122466552Y-122458729D01*
X122437222Y-122422991D01*
X122427652Y-122405087D01*
X122353557Y-122266467D01*
X122336384Y-122209853D01*
X122302037Y-122096627D01*
X122284641Y-121920000D01*
X122302037Y-121743373D01*
X122353557Y-121573534D01*
X122353557Y-121573533D01*
X122437221Y-121417011D01*
X122437222Y-121417009D01*
X122466552Y-121381271D01*
X122549814Y-121279814D01*
X122651271Y-121196552D01*
X122687009Y-121167222D01*
X122704913Y-121157652D01*
X122843533Y-121083557D01*
X122900147Y-121066384D01*
X123013373Y-121032037D01*
X123079558Y-121025518D01*
X123145740Y-121019000D01*
X123234260Y-121019000D01*
X123300442Y-121025518D01*
X123300442Y-121025518D01*
G37*
G36*
X125840442Y-121025518D02*
X125906627Y-121032037D01*
X126019853Y-121066384D01*
X126076467Y-121083557D01*
X126215087Y-121157652D01*
X126232991Y-121167222D01*
X126268729Y-121196552D01*
X126370186Y-121279814D01*
X126453448Y-121381271D01*
X126482778Y-121417009D01*
X126482779Y-121417011D01*
X126566443Y-121573533D01*
X126566443Y-121573534D01*
X126617963Y-121743373D01*
X126635359Y-121920000D01*
X126617963Y-122096627D01*
X126583616Y-122209853D01*
X126566443Y-122266467D01*
X126492348Y-122405087D01*
X126482778Y-122422991D01*
X126453448Y-122458729D01*
X126370186Y-122560186D01*
X126268729Y-122643448D01*
X126232991Y-122672778D01*
X126232989Y-122672779D01*
X126076467Y-122756443D01*
X126019853Y-122773616D01*
X125906627Y-122807963D01*
X125840443Y-122814481D01*
X125774260Y-122821000D01*
X125685740Y-122821000D01*
X125619557Y-122814481D01*
X125553373Y-122807963D01*
X125440147Y-122773616D01*
X125383533Y-122756443D01*
X125227011Y-122672779D01*
X125227009Y-122672778D01*
X125191271Y-122643448D01*
X125089814Y-122560186D01*
X125006552Y-122458729D01*
X124977222Y-122422991D01*
X124967652Y-122405087D01*
X124893557Y-122266467D01*
X124876384Y-122209853D01*
X124842037Y-122096627D01*
X124824641Y-121920000D01*
X124842037Y-121743373D01*
X124893557Y-121573534D01*
X124893557Y-121573533D01*
X124977221Y-121417011D01*
X124977222Y-121417009D01*
X125006552Y-121381271D01*
X125089814Y-121279814D01*
X125191271Y-121196552D01*
X125227009Y-121167222D01*
X125244913Y-121157652D01*
X125383533Y-121083557D01*
X125440147Y-121066384D01*
X125553373Y-121032037D01*
X125619558Y-121025518D01*
X125685740Y-121019000D01*
X125774260Y-121019000D01*
X125840442Y-121025518D01*
X125840442Y-121025518D01*
G37*
G36*
X128380442Y-121025518D02*
X128446627Y-121032037D01*
X128559853Y-121066384D01*
X128616467Y-121083557D01*
X128755087Y-121157652D01*
X128772991Y-121167222D01*
X128808729Y-121196552D01*
X128910186Y-121279814D01*
X128993448Y-121381271D01*
X129022778Y-121417009D01*
X129022779Y-121417011D01*
X129106443Y-121573533D01*
X129106443Y-121573534D01*
X129157963Y-121743373D01*
X129175359Y-121920000D01*
X129157963Y-122096627D01*
X129123616Y-122209853D01*
X129106443Y-122266467D01*
X129032348Y-122405087D01*
X129022778Y-122422991D01*
X128993448Y-122458729D01*
X128910186Y-122560186D01*
X128808729Y-122643448D01*
X128772991Y-122672778D01*
X128772989Y-122672779D01*
X128616467Y-122756443D01*
X128559853Y-122773616D01*
X128446627Y-122807963D01*
X128380443Y-122814481D01*
X128314260Y-122821000D01*
X128225740Y-122821000D01*
X128159557Y-122814481D01*
X128093373Y-122807963D01*
X127980147Y-122773616D01*
X127923533Y-122756443D01*
X127767011Y-122672779D01*
X127767009Y-122672778D01*
X127731271Y-122643448D01*
X127629814Y-122560186D01*
X127546552Y-122458729D01*
X127517222Y-122422991D01*
X127507652Y-122405087D01*
X127433557Y-122266467D01*
X127416384Y-122209853D01*
X127382037Y-122096627D01*
X127364641Y-121920000D01*
X127382037Y-121743373D01*
X127433557Y-121573534D01*
X127433557Y-121573533D01*
X127517221Y-121417011D01*
X127517222Y-121417009D01*
X127546552Y-121381271D01*
X127629814Y-121279814D01*
X127731271Y-121196552D01*
X127767009Y-121167222D01*
X127784913Y-121157652D01*
X127923533Y-121083557D01*
X127980147Y-121066384D01*
X128093373Y-121032037D01*
X128159558Y-121025518D01*
X128225740Y-121019000D01*
X128314260Y-121019000D01*
X128380442Y-121025518D01*
X128380442Y-121025518D01*
G37*
G36*
X131711000Y-122821000D02*
X129909000Y-122821000D01*
X129909000Y-121019000D01*
X131711000Y-121019000D01*
X131711000Y-122821000D01*
X131711000Y-122821000D01*
G37*
G36*
X60591000Y-122821000D02*
X58789000Y-122821000D01*
X58789000Y-121019000D01*
X60591000Y-121019000D01*
X60591000Y-122821000D01*
X60591000Y-122821000D01*
G37*
G36*
X57260442Y-121025518D02*
X57326627Y-121032037D01*
X57439853Y-121066384D01*
X57496467Y-121083557D01*
X57635087Y-121157652D01*
X57652991Y-121167222D01*
X57688729Y-121196552D01*
X57790186Y-121279814D01*
X57873448Y-121381271D01*
X57902778Y-121417009D01*
X57902779Y-121417011D01*
X57986443Y-121573533D01*
X57986443Y-121573534D01*
X58037963Y-121743373D01*
X58055359Y-121920000D01*
X58037963Y-122096627D01*
X58003616Y-122209853D01*
X57986443Y-122266467D01*
X57912348Y-122405087D01*
X57902778Y-122422991D01*
X57873448Y-122458729D01*
X57790186Y-122560186D01*
X57688729Y-122643448D01*
X57652991Y-122672778D01*
X57652989Y-122672779D01*
X57496467Y-122756443D01*
X57439853Y-122773616D01*
X57326627Y-122807963D01*
X57260443Y-122814481D01*
X57194260Y-122821000D01*
X57105740Y-122821000D01*
X57039557Y-122814481D01*
X56973373Y-122807963D01*
X56860147Y-122773616D01*
X56803533Y-122756443D01*
X56647011Y-122672779D01*
X56647009Y-122672778D01*
X56611271Y-122643448D01*
X56509814Y-122560186D01*
X56426552Y-122458729D01*
X56397222Y-122422991D01*
X56387652Y-122405087D01*
X56313557Y-122266467D01*
X56296384Y-122209853D01*
X56262037Y-122096627D01*
X56244641Y-121920000D01*
X56262037Y-121743373D01*
X56313557Y-121573534D01*
X56313557Y-121573533D01*
X56397221Y-121417011D01*
X56397222Y-121417009D01*
X56426552Y-121381271D01*
X56509814Y-121279814D01*
X56611271Y-121196552D01*
X56647009Y-121167222D01*
X56664913Y-121157652D01*
X56803533Y-121083557D01*
X56860147Y-121066384D01*
X56973373Y-121032037D01*
X57039558Y-121025518D01*
X57105740Y-121019000D01*
X57194260Y-121019000D01*
X57260442Y-121025518D01*
X57260442Y-121025518D01*
G37*
G36*
X96151000Y-122821000D02*
X94349000Y-122821000D01*
X94349000Y-121019000D01*
X96151000Y-121019000D01*
X96151000Y-122821000D01*
X96151000Y-122821000D01*
G37*
G36*
X79641000Y-121043000D02*
X77839000Y-121043000D01*
X77839000Y-119241000D01*
X79641000Y-119241000D01*
X79641000Y-121043000D01*
X79641000Y-121043000D01*
G37*
G36*
X76310443Y-119247519D02*
X76376627Y-119254037D01*
X76489853Y-119288384D01*
X76546467Y-119305557D01*
X76685087Y-119379652D01*
X76702991Y-119389222D01*
X76738729Y-119418552D01*
X76840186Y-119501814D01*
X76923448Y-119603271D01*
X76952778Y-119639009D01*
X76952779Y-119639011D01*
X77036443Y-119795533D01*
X77036443Y-119795534D01*
X77087963Y-119965373D01*
X77105359Y-120142000D01*
X77087963Y-120318627D01*
X77053616Y-120431853D01*
X77036443Y-120488467D01*
X76962348Y-120627087D01*
X76952778Y-120644991D01*
X76923448Y-120680729D01*
X76840186Y-120782186D01*
X76738729Y-120865448D01*
X76702991Y-120894778D01*
X76702989Y-120894779D01*
X76546467Y-120978443D01*
X76489853Y-120995616D01*
X76376627Y-121029963D01*
X76310442Y-121036482D01*
X76244260Y-121043000D01*
X76155740Y-121043000D01*
X76089558Y-121036482D01*
X76023373Y-121029963D01*
X75910147Y-120995616D01*
X75853533Y-120978443D01*
X75697011Y-120894779D01*
X75697009Y-120894778D01*
X75661271Y-120865448D01*
X75559814Y-120782186D01*
X75476552Y-120680729D01*
X75447222Y-120644991D01*
X75437652Y-120627087D01*
X75363557Y-120488467D01*
X75346384Y-120431853D01*
X75312037Y-120318627D01*
X75294641Y-120142000D01*
X75312037Y-119965373D01*
X75363557Y-119795534D01*
X75363557Y-119795533D01*
X75447221Y-119639011D01*
X75447222Y-119639009D01*
X75476552Y-119603271D01*
X75559814Y-119501814D01*
X75661271Y-119418552D01*
X75697009Y-119389222D01*
X75714913Y-119379652D01*
X75853533Y-119305557D01*
X75910147Y-119288384D01*
X76023373Y-119254037D01*
X76089557Y-119247519D01*
X76155740Y-119241000D01*
X76244260Y-119241000D01*
X76310443Y-119247519D01*
X76310443Y-119247519D01*
G37*
G36*
X73770443Y-119247519D02*
X73836627Y-119254037D01*
X73949853Y-119288384D01*
X74006467Y-119305557D01*
X74145087Y-119379652D01*
X74162991Y-119389222D01*
X74198729Y-119418552D01*
X74300186Y-119501814D01*
X74383448Y-119603271D01*
X74412778Y-119639009D01*
X74412779Y-119639011D01*
X74496443Y-119795533D01*
X74496443Y-119795534D01*
X74547963Y-119965373D01*
X74565359Y-120142000D01*
X74547963Y-120318627D01*
X74513616Y-120431853D01*
X74496443Y-120488467D01*
X74422348Y-120627087D01*
X74412778Y-120644991D01*
X74383448Y-120680729D01*
X74300186Y-120782186D01*
X74198729Y-120865448D01*
X74162991Y-120894778D01*
X74162989Y-120894779D01*
X74006467Y-120978443D01*
X73949853Y-120995616D01*
X73836627Y-121029963D01*
X73770442Y-121036482D01*
X73704260Y-121043000D01*
X73615740Y-121043000D01*
X73549558Y-121036482D01*
X73483373Y-121029963D01*
X73370147Y-120995616D01*
X73313533Y-120978443D01*
X73157011Y-120894779D01*
X73157009Y-120894778D01*
X73121271Y-120865448D01*
X73019814Y-120782186D01*
X72936552Y-120680729D01*
X72907222Y-120644991D01*
X72897652Y-120627087D01*
X72823557Y-120488467D01*
X72806384Y-120431853D01*
X72772037Y-120318627D01*
X72754641Y-120142000D01*
X72772037Y-119965373D01*
X72823557Y-119795534D01*
X72823557Y-119795533D01*
X72907221Y-119639011D01*
X72907222Y-119639009D01*
X72936552Y-119603271D01*
X73019814Y-119501814D01*
X73121271Y-119418552D01*
X73157009Y-119389222D01*
X73174913Y-119379652D01*
X73313533Y-119305557D01*
X73370147Y-119288384D01*
X73483373Y-119254037D01*
X73549557Y-119247519D01*
X73615740Y-119241000D01*
X73704260Y-119241000D01*
X73770443Y-119247519D01*
X73770443Y-119247519D01*
G37*
G36*
X71230443Y-119247519D02*
X71296627Y-119254037D01*
X71409853Y-119288384D01*
X71466467Y-119305557D01*
X71605087Y-119379652D01*
X71622991Y-119389222D01*
X71658729Y-119418552D01*
X71760186Y-119501814D01*
X71843448Y-119603271D01*
X71872778Y-119639009D01*
X71872779Y-119639011D01*
X71956443Y-119795533D01*
X71956443Y-119795534D01*
X72007963Y-119965373D01*
X72025359Y-120142000D01*
X72007963Y-120318627D01*
X71973616Y-120431853D01*
X71956443Y-120488467D01*
X71882348Y-120627087D01*
X71872778Y-120644991D01*
X71843448Y-120680729D01*
X71760186Y-120782186D01*
X71658729Y-120865448D01*
X71622991Y-120894778D01*
X71622989Y-120894779D01*
X71466467Y-120978443D01*
X71409853Y-120995616D01*
X71296627Y-121029963D01*
X71230442Y-121036482D01*
X71164260Y-121043000D01*
X71075740Y-121043000D01*
X71009558Y-121036482D01*
X70943373Y-121029963D01*
X70830147Y-120995616D01*
X70773533Y-120978443D01*
X70617011Y-120894779D01*
X70617009Y-120894778D01*
X70581271Y-120865448D01*
X70479814Y-120782186D01*
X70396552Y-120680729D01*
X70367222Y-120644991D01*
X70357652Y-120627087D01*
X70283557Y-120488467D01*
X70266384Y-120431853D01*
X70232037Y-120318627D01*
X70214641Y-120142000D01*
X70232037Y-119965373D01*
X70283557Y-119795534D01*
X70283557Y-119795533D01*
X70367221Y-119639011D01*
X70367222Y-119639009D01*
X70396552Y-119603271D01*
X70479814Y-119501814D01*
X70581271Y-119418552D01*
X70617009Y-119389222D01*
X70634913Y-119379652D01*
X70773533Y-119305557D01*
X70830147Y-119288384D01*
X70943373Y-119254037D01*
X71009557Y-119247519D01*
X71075740Y-119241000D01*
X71164260Y-119241000D01*
X71230443Y-119247519D01*
X71230443Y-119247519D01*
G37*
G36*
X68690443Y-119247519D02*
X68756627Y-119254037D01*
X68869853Y-119288384D01*
X68926467Y-119305557D01*
X69065087Y-119379652D01*
X69082991Y-119389222D01*
X69118729Y-119418552D01*
X69220186Y-119501814D01*
X69303448Y-119603271D01*
X69332778Y-119639009D01*
X69332779Y-119639011D01*
X69416443Y-119795533D01*
X69416443Y-119795534D01*
X69467963Y-119965373D01*
X69485359Y-120142000D01*
X69467963Y-120318627D01*
X69433616Y-120431853D01*
X69416443Y-120488467D01*
X69342348Y-120627087D01*
X69332778Y-120644991D01*
X69303448Y-120680729D01*
X69220186Y-120782186D01*
X69118729Y-120865448D01*
X69082991Y-120894778D01*
X69082989Y-120894779D01*
X68926467Y-120978443D01*
X68869853Y-120995616D01*
X68756627Y-121029963D01*
X68690442Y-121036482D01*
X68624260Y-121043000D01*
X68535740Y-121043000D01*
X68469558Y-121036482D01*
X68403373Y-121029963D01*
X68290147Y-120995616D01*
X68233533Y-120978443D01*
X68077011Y-120894779D01*
X68077009Y-120894778D01*
X68041271Y-120865448D01*
X67939814Y-120782186D01*
X67856552Y-120680729D01*
X67827222Y-120644991D01*
X67817652Y-120627087D01*
X67743557Y-120488467D01*
X67726384Y-120431853D01*
X67692037Y-120318627D01*
X67674641Y-120142000D01*
X67692037Y-119965373D01*
X67743557Y-119795534D01*
X67743557Y-119795533D01*
X67827221Y-119639011D01*
X67827222Y-119639009D01*
X67856552Y-119603271D01*
X67939814Y-119501814D01*
X68041271Y-119418552D01*
X68077009Y-119389222D01*
X68094913Y-119379652D01*
X68233533Y-119305557D01*
X68290147Y-119288384D01*
X68403373Y-119254037D01*
X68469557Y-119247519D01*
X68535740Y-119241000D01*
X68624260Y-119241000D01*
X68690443Y-119247519D01*
X68690443Y-119247519D01*
G37*
G36*
X139331000Y-120281000D02*
X137529000Y-120281000D01*
X137529000Y-118479000D01*
X139331000Y-118479000D01*
X139331000Y-120281000D01*
X139331000Y-120281000D01*
G37*
G36*
X138540442Y-115945518D02*
X138606627Y-115952037D01*
X138719853Y-115986384D01*
X138776467Y-116003557D01*
X138915087Y-116077652D01*
X138932991Y-116087222D01*
X138968729Y-116116552D01*
X139070186Y-116199814D01*
X139153448Y-116301271D01*
X139182778Y-116337009D01*
X139182779Y-116337011D01*
X139266443Y-116493533D01*
X139266443Y-116493534D01*
X139317963Y-116663373D01*
X139335359Y-116840000D01*
X139317963Y-117016627D01*
X139283616Y-117129853D01*
X139266443Y-117186467D01*
X139192348Y-117325087D01*
X139182778Y-117342991D01*
X139153448Y-117378729D01*
X139070186Y-117480186D01*
X138968729Y-117563448D01*
X138932991Y-117592778D01*
X138932989Y-117592779D01*
X138776467Y-117676443D01*
X138719853Y-117693616D01*
X138606627Y-117727963D01*
X138540442Y-117734482D01*
X138474260Y-117741000D01*
X138385740Y-117741000D01*
X138319558Y-117734482D01*
X138253373Y-117727963D01*
X138140147Y-117693616D01*
X138083533Y-117676443D01*
X137927011Y-117592779D01*
X137927009Y-117592778D01*
X137891271Y-117563448D01*
X137789814Y-117480186D01*
X137706552Y-117378729D01*
X137677222Y-117342991D01*
X137667652Y-117325087D01*
X137593557Y-117186467D01*
X137576384Y-117129853D01*
X137542037Y-117016627D01*
X137524641Y-116840000D01*
X137542037Y-116663373D01*
X137593557Y-116493534D01*
X137593557Y-116493533D01*
X137677221Y-116337011D01*
X137677222Y-116337009D01*
X137706552Y-116301271D01*
X137789814Y-116199814D01*
X137891271Y-116116552D01*
X137927009Y-116087222D01*
X137944913Y-116077652D01*
X138083533Y-116003557D01*
X138140147Y-115986384D01*
X138253373Y-115952037D01*
X138319558Y-115945518D01*
X138385740Y-115939000D01*
X138474260Y-115939000D01*
X138540442Y-115945518D01*
X138540442Y-115945518D01*
G37*
G36*
X119691174Y-113233556D02*
X119885318Y-113313973D01*
X120060048Y-113430724D01*
X120208636Y-113579312D01*
X120325387Y-113754042D01*
X120405804Y-113948186D01*
X120446800Y-114154288D01*
X120446800Y-114364432D01*
X120405804Y-114570534D01*
X120325387Y-114764678D01*
X120208636Y-114939408D01*
X120060048Y-115087996D01*
X119885318Y-115204747D01*
X119691174Y-115285164D01*
X119485072Y-115326160D01*
X119274928Y-115326160D01*
X119068826Y-115285164D01*
X118874682Y-115204747D01*
X118699952Y-115087996D01*
X118551364Y-114939408D01*
X118434613Y-114764678D01*
X118354196Y-114570534D01*
X118313200Y-114364432D01*
X118313200Y-114154288D01*
X118354196Y-113948186D01*
X118434613Y-113754042D01*
X118551364Y-113579312D01*
X118699952Y-113430724D01*
X118874682Y-113313973D01*
X119068826Y-113233556D01*
X119274928Y-113192560D01*
X119485072Y-113192560D01*
X119691174Y-113233556D01*
X119691174Y-113233556D01*
G37*
G36*
X129851174Y-113233556D02*
X130045318Y-113313973D01*
X130220048Y-113430724D01*
X130368636Y-113579312D01*
X130485387Y-113754042D01*
X130565804Y-113948186D01*
X130606800Y-114154288D01*
X130606800Y-114364432D01*
X130565804Y-114570534D01*
X130485387Y-114764678D01*
X130368636Y-114939408D01*
X130220048Y-115087996D01*
X130045318Y-115204747D01*
X129851174Y-115285164D01*
X129645072Y-115326160D01*
X129434928Y-115326160D01*
X129228826Y-115285164D01*
X129034682Y-115204747D01*
X128859952Y-115087996D01*
X128711364Y-114939408D01*
X128594613Y-114764678D01*
X128514196Y-114570534D01*
X128473200Y-114364432D01*
X128473200Y-114154288D01*
X128514196Y-113948186D01*
X128594613Y-113754042D01*
X128711364Y-113579312D01*
X128859952Y-113430724D01*
X129034682Y-113313973D01*
X129228826Y-113233556D01*
X129434928Y-113192560D01*
X129645072Y-113192560D01*
X129851174Y-113233556D01*
X129851174Y-113233556D01*
G37*
G36*
X138540443Y-113405519D02*
X138606627Y-113412037D01*
X138719853Y-113446384D01*
X138776467Y-113463557D01*
X138915087Y-113537652D01*
X138932991Y-113547222D01*
X138968729Y-113576552D01*
X139070186Y-113659814D01*
X139147515Y-113754041D01*
X139182778Y-113797009D01*
X139182779Y-113797011D01*
X139266443Y-113953533D01*
X139266443Y-113953534D01*
X139317963Y-114123373D01*
X139335359Y-114300000D01*
X139317963Y-114476627D01*
X139296243Y-114548228D01*
X139266443Y-114646467D01*
X139203257Y-114764678D01*
X139182778Y-114802991D01*
X139153448Y-114838729D01*
X139070186Y-114940186D01*
X138968729Y-115023448D01*
X138932991Y-115052778D01*
X138932989Y-115052779D01*
X138776467Y-115136443D01*
X138728478Y-115151000D01*
X138606627Y-115187963D01*
X138540442Y-115194482D01*
X138474260Y-115201000D01*
X138385740Y-115201000D01*
X138319558Y-115194482D01*
X138253373Y-115187963D01*
X138131522Y-115151000D01*
X138083533Y-115136443D01*
X137927011Y-115052779D01*
X137927009Y-115052778D01*
X137891271Y-115023448D01*
X137789814Y-114940186D01*
X137706552Y-114838729D01*
X137677222Y-114802991D01*
X137656743Y-114764678D01*
X137593557Y-114646467D01*
X137563757Y-114548228D01*
X137542037Y-114476627D01*
X137524641Y-114300000D01*
X137542037Y-114123373D01*
X137593557Y-113953534D01*
X137593557Y-113953533D01*
X137677221Y-113797011D01*
X137677222Y-113797009D01*
X137712485Y-113754041D01*
X137789814Y-113659814D01*
X137891271Y-113576552D01*
X137927009Y-113547222D01*
X137944913Y-113537652D01*
X138083533Y-113463557D01*
X138140147Y-113446384D01*
X138253373Y-113412037D01*
X138319557Y-113405519D01*
X138385740Y-113399000D01*
X138474260Y-113399000D01*
X138540443Y-113405519D01*
X138540443Y-113405519D01*
G37*
G36*
X57398228Y-113481703D02*
X57553100Y-113545853D01*
X57692481Y-113638985D01*
X57811015Y-113757519D01*
X57904147Y-113896900D01*
X57968297Y-114051772D01*
X58001000Y-114216184D01*
X58001000Y-114383816D01*
X57968297Y-114548228D01*
X57904147Y-114703100D01*
X57811015Y-114842481D01*
X57692481Y-114961015D01*
X57553100Y-115054147D01*
X57398228Y-115118297D01*
X57233816Y-115151000D01*
X57066184Y-115151000D01*
X56901772Y-115118297D01*
X56746900Y-115054147D01*
X56607519Y-114961015D01*
X56488985Y-114842481D01*
X56395853Y-114703100D01*
X56331703Y-114548228D01*
X56299000Y-114383816D01*
X56299000Y-114216184D01*
X56331703Y-114051772D01*
X56395853Y-113896900D01*
X56488985Y-113757519D01*
X56607519Y-113638985D01*
X56746900Y-113545853D01*
X56901772Y-113481703D01*
X57066184Y-113449000D01*
X57233816Y-113449000D01*
X57398228Y-113481703D01*
X57398228Y-113481703D01*
G37*
G36*
X70098228Y-113481703D02*
X70253100Y-113545853D01*
X70392481Y-113638985D01*
X70511015Y-113757519D01*
X70604147Y-113896900D01*
X70668297Y-114051772D01*
X70701000Y-114216184D01*
X70701000Y-114383816D01*
X70668297Y-114548228D01*
X70604147Y-114703100D01*
X70511015Y-114842481D01*
X70392481Y-114961015D01*
X70253100Y-115054147D01*
X70098228Y-115118297D01*
X69933816Y-115151000D01*
X69766184Y-115151000D01*
X69601772Y-115118297D01*
X69446900Y-115054147D01*
X69307519Y-114961015D01*
X69188985Y-114842481D01*
X69095853Y-114703100D01*
X69031703Y-114548228D01*
X68999000Y-114383816D01*
X68999000Y-114216184D01*
X69031703Y-114051772D01*
X69095853Y-113896900D01*
X69188985Y-113757519D01*
X69307519Y-113638985D01*
X69446900Y-113545853D01*
X69601772Y-113481703D01*
X69766184Y-113449000D01*
X69933816Y-113449000D01*
X70098228Y-113481703D01*
X70098228Y-113481703D01*
G37*
G36*
X49778228Y-113481703D02*
X49933100Y-113545853D01*
X50072481Y-113638985D01*
X50191015Y-113757519D01*
X50284147Y-113896900D01*
X50348297Y-114051772D01*
X50381000Y-114216184D01*
X50381000Y-114383816D01*
X50348297Y-114548228D01*
X50284147Y-114703100D01*
X50191015Y-114842481D01*
X50072481Y-114961015D01*
X49933100Y-115054147D01*
X49778228Y-115118297D01*
X49613816Y-115151000D01*
X49446184Y-115151000D01*
X49281772Y-115118297D01*
X49126900Y-115054147D01*
X48987519Y-114961015D01*
X48868985Y-114842481D01*
X48775853Y-114703100D01*
X48711703Y-114548228D01*
X48679000Y-114383816D01*
X48679000Y-114216184D01*
X48711703Y-114051772D01*
X48775853Y-113896900D01*
X48868985Y-113757519D01*
X48987519Y-113638985D01*
X49126900Y-113545853D01*
X49281772Y-113481703D01*
X49446184Y-113449000D01*
X49613816Y-113449000D01*
X49778228Y-113481703D01*
X49778228Y-113481703D01*
G37*
G36*
X47238228Y-113481703D02*
X47393100Y-113545853D01*
X47532481Y-113638985D01*
X47651015Y-113757519D01*
X47744147Y-113896900D01*
X47808297Y-114051772D01*
X47841000Y-114216184D01*
X47841000Y-114383816D01*
X47808297Y-114548228D01*
X47744147Y-114703100D01*
X47651015Y-114842481D01*
X47532481Y-114961015D01*
X47393100Y-115054147D01*
X47238228Y-115118297D01*
X47073816Y-115151000D01*
X46906184Y-115151000D01*
X46741772Y-115118297D01*
X46586900Y-115054147D01*
X46447519Y-114961015D01*
X46328985Y-114842481D01*
X46235853Y-114703100D01*
X46171703Y-114548228D01*
X46139000Y-114383816D01*
X46139000Y-114216184D01*
X46171703Y-114051772D01*
X46235853Y-113896900D01*
X46328985Y-113757519D01*
X46447519Y-113638985D01*
X46586900Y-113545853D01*
X46741772Y-113481703D01*
X46906184Y-113449000D01*
X47073816Y-113449000D01*
X47238228Y-113481703D01*
X47238228Y-113481703D01*
G37*
G36*
X72638228Y-113481703D02*
X72793100Y-113545853D01*
X72932481Y-113638985D01*
X73051015Y-113757519D01*
X73144147Y-113896900D01*
X73208297Y-114051772D01*
X73241000Y-114216184D01*
X73241000Y-114383816D01*
X73208297Y-114548228D01*
X73144147Y-114703100D01*
X73051015Y-114842481D01*
X72932481Y-114961015D01*
X72793100Y-115054147D01*
X72638228Y-115118297D01*
X72473816Y-115151000D01*
X72306184Y-115151000D01*
X72141772Y-115118297D01*
X71986900Y-115054147D01*
X71847519Y-114961015D01*
X71728985Y-114842481D01*
X71635853Y-114703100D01*
X71571703Y-114548228D01*
X71539000Y-114383816D01*
X71539000Y-114216184D01*
X71571703Y-114051772D01*
X71635853Y-113896900D01*
X71728985Y-113757519D01*
X71847519Y-113638985D01*
X71986900Y-113545853D01*
X72141772Y-113481703D01*
X72306184Y-113449000D01*
X72473816Y-113449000D01*
X72638228Y-113481703D01*
X72638228Y-113481703D01*
G37*
G36*
X44698228Y-113481703D02*
X44853100Y-113545853D01*
X44992481Y-113638985D01*
X45111015Y-113757519D01*
X45204147Y-113896900D01*
X45268297Y-114051772D01*
X45301000Y-114216184D01*
X45301000Y-114383816D01*
X45268297Y-114548228D01*
X45204147Y-114703100D01*
X45111015Y-114842481D01*
X44992481Y-114961015D01*
X44853100Y-115054147D01*
X44698228Y-115118297D01*
X44533816Y-115151000D01*
X44366184Y-115151000D01*
X44201772Y-115118297D01*
X44046900Y-115054147D01*
X43907519Y-114961015D01*
X43788985Y-114842481D01*
X43695853Y-114703100D01*
X43631703Y-114548228D01*
X43599000Y-114383816D01*
X43599000Y-114216184D01*
X43631703Y-114051772D01*
X43695853Y-113896900D01*
X43788985Y-113757519D01*
X43907519Y-113638985D01*
X44046900Y-113545853D01*
X44201772Y-113481703D01*
X44366184Y-113449000D01*
X44533816Y-113449000D01*
X44698228Y-113481703D01*
X44698228Y-113481703D01*
G37*
G36*
X42158228Y-113481703D02*
X42313100Y-113545853D01*
X42452481Y-113638985D01*
X42571015Y-113757519D01*
X42664147Y-113896900D01*
X42728297Y-114051772D01*
X42761000Y-114216184D01*
X42761000Y-114383816D01*
X42728297Y-114548228D01*
X42664147Y-114703100D01*
X42571015Y-114842481D01*
X42452481Y-114961015D01*
X42313100Y-115054147D01*
X42158228Y-115118297D01*
X41993816Y-115151000D01*
X41826184Y-115151000D01*
X41661772Y-115118297D01*
X41506900Y-115054147D01*
X41367519Y-114961015D01*
X41248985Y-114842481D01*
X41155853Y-114703100D01*
X41091703Y-114548228D01*
X41059000Y-114383816D01*
X41059000Y-114216184D01*
X41091703Y-114051772D01*
X41155853Y-113896900D01*
X41248985Y-113757519D01*
X41367519Y-113638985D01*
X41506900Y-113545853D01*
X41661772Y-113481703D01*
X41826184Y-113449000D01*
X41993816Y-113449000D01*
X42158228Y-113481703D01*
X42158228Y-113481703D01*
G37*
G36*
X65018228Y-113481703D02*
X65173100Y-113545853D01*
X65312481Y-113638985D01*
X65431015Y-113757519D01*
X65524147Y-113896900D01*
X65588297Y-114051772D01*
X65621000Y-114216184D01*
X65621000Y-114383816D01*
X65588297Y-114548228D01*
X65524147Y-114703100D01*
X65431015Y-114842481D01*
X65312481Y-114961015D01*
X65173100Y-115054147D01*
X65018228Y-115118297D01*
X64853816Y-115151000D01*
X64686184Y-115151000D01*
X64521772Y-115118297D01*
X64366900Y-115054147D01*
X64227519Y-114961015D01*
X64108985Y-114842481D01*
X64015853Y-114703100D01*
X63951703Y-114548228D01*
X63919000Y-114383816D01*
X63919000Y-114216184D01*
X63951703Y-114051772D01*
X64015853Y-113896900D01*
X64108985Y-113757519D01*
X64227519Y-113638985D01*
X64366900Y-113545853D01*
X64521772Y-113481703D01*
X64686184Y-113449000D01*
X64853816Y-113449000D01*
X65018228Y-113481703D01*
X65018228Y-113481703D01*
G37*
G36*
X62478228Y-113481703D02*
X62633100Y-113545853D01*
X62772481Y-113638985D01*
X62891015Y-113757519D01*
X62984147Y-113896900D01*
X63048297Y-114051772D01*
X63081000Y-114216184D01*
X63081000Y-114383816D01*
X63048297Y-114548228D01*
X62984147Y-114703100D01*
X62891015Y-114842481D01*
X62772481Y-114961015D01*
X62633100Y-115054147D01*
X62478228Y-115118297D01*
X62313816Y-115151000D01*
X62146184Y-115151000D01*
X61981772Y-115118297D01*
X61826900Y-115054147D01*
X61687519Y-114961015D01*
X61568985Y-114842481D01*
X61475853Y-114703100D01*
X61411703Y-114548228D01*
X61379000Y-114383816D01*
X61379000Y-114216184D01*
X61411703Y-114051772D01*
X61475853Y-113896900D01*
X61568985Y-113757519D01*
X61687519Y-113638985D01*
X61826900Y-113545853D01*
X61981772Y-113481703D01*
X62146184Y-113449000D01*
X62313816Y-113449000D01*
X62478228Y-113481703D01*
X62478228Y-113481703D01*
G37*
G36*
X59938228Y-113481703D02*
X60093100Y-113545853D01*
X60232481Y-113638985D01*
X60351015Y-113757519D01*
X60444147Y-113896900D01*
X60508297Y-114051772D01*
X60541000Y-114216184D01*
X60541000Y-114383816D01*
X60508297Y-114548228D01*
X60444147Y-114703100D01*
X60351015Y-114842481D01*
X60232481Y-114961015D01*
X60093100Y-115054147D01*
X59938228Y-115118297D01*
X59773816Y-115151000D01*
X59606184Y-115151000D01*
X59441772Y-115118297D01*
X59286900Y-115054147D01*
X59147519Y-114961015D01*
X59028985Y-114842481D01*
X58935853Y-114703100D01*
X58871703Y-114548228D01*
X58839000Y-114383816D01*
X58839000Y-114216184D01*
X58871703Y-114051772D01*
X58935853Y-113896900D01*
X59028985Y-113757519D01*
X59147519Y-113638985D01*
X59286900Y-113545853D01*
X59441772Y-113481703D01*
X59606184Y-113449000D01*
X59773816Y-113449000D01*
X59938228Y-113481703D01*
X59938228Y-113481703D01*
G37*
G36*
X40221000Y-115151000D02*
X38519000Y-115151000D01*
X38519000Y-113449000D01*
X40221000Y-113449000D01*
X40221000Y-115151000D01*
X40221000Y-115151000D01*
G37*
G36*
X54858228Y-113481703D02*
X55013100Y-113545853D01*
X55152481Y-113638985D01*
X55271015Y-113757519D01*
X55364147Y-113896900D01*
X55428297Y-114051772D01*
X55461000Y-114216184D01*
X55461000Y-114383816D01*
X55428297Y-114548228D01*
X55364147Y-114703100D01*
X55271015Y-114842481D01*
X55152481Y-114961015D01*
X55013100Y-115054147D01*
X54858228Y-115118297D01*
X54693816Y-115151000D01*
X54526184Y-115151000D01*
X54361772Y-115118297D01*
X54206900Y-115054147D01*
X54067519Y-114961015D01*
X53948985Y-114842481D01*
X53855853Y-114703100D01*
X53791703Y-114548228D01*
X53759000Y-114383816D01*
X53759000Y-114216184D01*
X53791703Y-114051772D01*
X53855853Y-113896900D01*
X53948985Y-113757519D01*
X54067519Y-113638985D01*
X54206900Y-113545853D01*
X54361772Y-113481703D01*
X54526184Y-113449000D01*
X54693816Y-113449000D01*
X54858228Y-113481703D01*
X54858228Y-113481703D01*
G37*
G36*
X52318228Y-113481703D02*
X52473100Y-113545853D01*
X52612481Y-113638985D01*
X52731015Y-113757519D01*
X52824147Y-113896900D01*
X52888297Y-114051772D01*
X52921000Y-114216184D01*
X52921000Y-114383816D01*
X52888297Y-114548228D01*
X52824147Y-114703100D01*
X52731015Y-114842481D01*
X52612481Y-114961015D01*
X52473100Y-115054147D01*
X52318228Y-115118297D01*
X52153816Y-115151000D01*
X51986184Y-115151000D01*
X51821772Y-115118297D01*
X51666900Y-115054147D01*
X51527519Y-114961015D01*
X51408985Y-114842481D01*
X51315853Y-114703100D01*
X51251703Y-114548228D01*
X51219000Y-114383816D01*
X51219000Y-114216184D01*
X51251703Y-114051772D01*
X51315853Y-113896900D01*
X51408985Y-113757519D01*
X51527519Y-113638985D01*
X51666900Y-113545853D01*
X51821772Y-113481703D01*
X51986184Y-113449000D01*
X52153816Y-113449000D01*
X52318228Y-113481703D01*
X52318228Y-113481703D01*
G37*
G36*
X67558228Y-113481703D02*
X67713100Y-113545853D01*
X67852481Y-113638985D01*
X67971015Y-113757519D01*
X68064147Y-113896900D01*
X68128297Y-114051772D01*
X68161000Y-114216184D01*
X68161000Y-114383816D01*
X68128297Y-114548228D01*
X68064147Y-114703100D01*
X67971015Y-114842481D01*
X67852481Y-114961015D01*
X67713100Y-115054147D01*
X67558228Y-115118297D01*
X67393816Y-115151000D01*
X67226184Y-115151000D01*
X67061772Y-115118297D01*
X66906900Y-115054147D01*
X66767519Y-114961015D01*
X66648985Y-114842481D01*
X66555853Y-114703100D01*
X66491703Y-114548228D01*
X66459000Y-114383816D01*
X66459000Y-114216184D01*
X66491703Y-114051772D01*
X66555853Y-113896900D01*
X66648985Y-113757519D01*
X66767519Y-113638985D01*
X66906900Y-113545853D01*
X67061772Y-113481703D01*
X67226184Y-113449000D01*
X67393816Y-113449000D01*
X67558228Y-113481703D01*
X67558228Y-113481703D01*
G37*
G36*
X72638228Y-110941703D02*
X72793100Y-111005853D01*
X72932481Y-111098985D01*
X73051015Y-111217519D01*
X73144147Y-111356900D01*
X73208297Y-111511772D01*
X73241000Y-111676184D01*
X73241000Y-111843816D01*
X73208297Y-112008228D01*
X73144147Y-112163100D01*
X73051015Y-112302481D01*
X72932481Y-112421015D01*
X72793100Y-112514147D01*
X72638228Y-112578297D01*
X72473816Y-112611000D01*
X72306184Y-112611000D01*
X72141772Y-112578297D01*
X71986900Y-112514147D01*
X71847519Y-112421015D01*
X71728985Y-112302481D01*
X71635853Y-112163100D01*
X71571703Y-112008228D01*
X71539000Y-111843816D01*
X71539000Y-111676184D01*
X71571703Y-111511772D01*
X71635853Y-111356900D01*
X71728985Y-111217519D01*
X71847519Y-111098985D01*
X71986900Y-111005853D01*
X72141772Y-110941703D01*
X72306184Y-110909000D01*
X72473816Y-110909000D01*
X72638228Y-110941703D01*
X72638228Y-110941703D01*
G37*
G36*
X130606800Y-110327440D02*
X128473200Y-110327440D01*
X128473200Y-108193840D01*
X130606800Y-108193840D01*
X130606800Y-110327440D01*
X130606800Y-110327440D01*
G37*
G36*
X120446800Y-110327440D02*
X118313200Y-110327440D01*
X118313200Y-108193840D01*
X120446800Y-108193840D01*
X120446800Y-110327440D01*
X120446800Y-110327440D01*
G37*
G36*
X139331000Y-110121000D02*
X137529000Y-110121000D01*
X137529000Y-108319000D01*
X139331000Y-108319000D01*
X139331000Y-110121000D01*
X139331000Y-110121000D01*
G37*
G36*
X72638228Y-108401703D02*
X72793100Y-108465853D01*
X72932481Y-108558985D01*
X73051015Y-108677519D01*
X73144147Y-108816900D01*
X73208297Y-108971772D01*
X73241000Y-109136184D01*
X73241000Y-109303816D01*
X73208297Y-109468228D01*
X73144147Y-109623100D01*
X73051015Y-109762481D01*
X72932481Y-109881015D01*
X72793100Y-109974147D01*
X72638228Y-110038297D01*
X72473816Y-110071000D01*
X72306184Y-110071000D01*
X72141772Y-110038297D01*
X71986900Y-109974147D01*
X71847519Y-109881015D01*
X71728985Y-109762481D01*
X71635853Y-109623100D01*
X71571703Y-109468228D01*
X71539000Y-109303816D01*
X71539000Y-109136184D01*
X71571703Y-108971772D01*
X71635853Y-108816900D01*
X71728985Y-108677519D01*
X71847519Y-108558985D01*
X71986900Y-108465853D01*
X72141772Y-108401703D01*
X72306184Y-108369000D01*
X72473816Y-108369000D01*
X72638228Y-108401703D01*
X72638228Y-108401703D01*
G37*
G36*
X49821981Y-105717468D02*
X50004150Y-105792925D01*
X50168103Y-105902475D01*
X50307525Y-106041897D01*
X50417075Y-106205850D01*
X50492532Y-106388019D01*
X50531000Y-106581410D01*
X50531000Y-106778590D01*
X50492532Y-106971981D01*
X50417075Y-107154150D01*
X50307525Y-107318103D01*
X50168103Y-107457525D01*
X50004150Y-107567075D01*
X49821981Y-107642532D01*
X49628590Y-107681000D01*
X49431410Y-107681000D01*
X49238019Y-107642532D01*
X49055850Y-107567075D01*
X48891897Y-107457525D01*
X48752475Y-107318103D01*
X48642925Y-107154150D01*
X48567468Y-106971981D01*
X48529000Y-106778590D01*
X48529000Y-106581410D01*
X48567468Y-106388019D01*
X48642925Y-106205850D01*
X48752475Y-106041897D01*
X48891897Y-105902475D01*
X49055850Y-105792925D01*
X49238019Y-105717468D01*
X49431410Y-105679000D01*
X49628590Y-105679000D01*
X49821981Y-105717468D01*
X49821981Y-105717468D01*
G37*
G36*
X46011981Y-105717468D02*
X46194150Y-105792925D01*
X46358103Y-105902475D01*
X46497525Y-106041897D01*
X46607075Y-106205850D01*
X46682532Y-106388019D01*
X46721000Y-106581410D01*
X46721000Y-106778590D01*
X46682532Y-106971981D01*
X46607075Y-107154150D01*
X46497525Y-107318103D01*
X46358103Y-107457525D01*
X46194150Y-107567075D01*
X46011981Y-107642532D01*
X45818590Y-107681000D01*
X45621410Y-107681000D01*
X45428019Y-107642532D01*
X45245850Y-107567075D01*
X45081897Y-107457525D01*
X44942475Y-107318103D01*
X44832925Y-107154150D01*
X44757468Y-106971981D01*
X44719000Y-106778590D01*
X44719000Y-106581410D01*
X44757468Y-106388019D01*
X44832925Y-106205850D01*
X44942475Y-106041897D01*
X45081897Y-105902475D01*
X45245850Y-105792925D01*
X45428019Y-105717468D01*
X45621410Y-105679000D01*
X45818590Y-105679000D01*
X46011981Y-105717468D01*
X46011981Y-105717468D01*
G37*
G36*
X138540443Y-105785519D02*
X138606627Y-105792037D01*
X138719853Y-105826384D01*
X138776467Y-105843557D01*
X138886689Y-105902473D01*
X138932991Y-105927222D01*
X138968729Y-105956552D01*
X139070186Y-106039814D01*
X139150369Y-106137519D01*
X139182778Y-106177009D01*
X139182779Y-106177011D01*
X139266443Y-106333533D01*
X139266443Y-106333534D01*
X139317963Y-106503373D01*
X139335359Y-106680000D01*
X139317963Y-106856627D01*
X139296243Y-106928228D01*
X139266443Y-107026467D01*
X139198194Y-107154150D01*
X139182778Y-107182991D01*
X139153448Y-107218729D01*
X139070186Y-107320186D01*
X138968729Y-107403448D01*
X138932991Y-107432778D01*
X138932989Y-107432779D01*
X138776467Y-107516443D01*
X138728478Y-107531000D01*
X138606627Y-107567963D01*
X138540443Y-107574481D01*
X138474260Y-107581000D01*
X138385740Y-107581000D01*
X138319557Y-107574481D01*
X138253373Y-107567963D01*
X138131522Y-107531000D01*
X138083533Y-107516443D01*
X137927011Y-107432779D01*
X137927009Y-107432778D01*
X137891271Y-107403448D01*
X137789814Y-107320186D01*
X137706552Y-107218729D01*
X137677222Y-107182991D01*
X137661806Y-107154150D01*
X137593557Y-107026467D01*
X137563757Y-106928228D01*
X137542037Y-106856627D01*
X137524641Y-106680000D01*
X137542037Y-106503373D01*
X137593557Y-106333534D01*
X137593557Y-106333533D01*
X137677221Y-106177011D01*
X137677222Y-106177009D01*
X137709631Y-106137519D01*
X137789814Y-106039814D01*
X137891271Y-105956552D01*
X137927009Y-105927222D01*
X137973311Y-105902473D01*
X138083533Y-105843557D01*
X138140147Y-105826384D01*
X138253373Y-105792037D01*
X138319557Y-105785519D01*
X138385740Y-105779000D01*
X138474260Y-105779000D01*
X138540443Y-105785519D01*
X138540443Y-105785519D01*
G37*
G36*
X70098228Y-105861703D02*
X70253100Y-105925853D01*
X70392481Y-106018985D01*
X70511015Y-106137519D01*
X70604147Y-106276900D01*
X70668297Y-106431772D01*
X70701000Y-106596184D01*
X70701000Y-106763816D01*
X70668297Y-106928228D01*
X70604147Y-107083100D01*
X70511015Y-107222481D01*
X70392481Y-107341015D01*
X70253100Y-107434147D01*
X70098228Y-107498297D01*
X69933816Y-107531000D01*
X69766184Y-107531000D01*
X69601772Y-107498297D01*
X69446900Y-107434147D01*
X69307519Y-107341015D01*
X69188985Y-107222481D01*
X69095853Y-107083100D01*
X69031703Y-106928228D01*
X68999000Y-106763816D01*
X68999000Y-106596184D01*
X69031703Y-106431772D01*
X69095853Y-106276900D01*
X69188985Y-106137519D01*
X69307519Y-106018985D01*
X69446900Y-105925853D01*
X69601772Y-105861703D01*
X69766184Y-105829000D01*
X69933816Y-105829000D01*
X70098228Y-105861703D01*
X70098228Y-105861703D01*
G37*
G36*
X67558228Y-105861703D02*
X67713100Y-105925853D01*
X67852481Y-106018985D01*
X67971015Y-106137519D01*
X68064147Y-106276900D01*
X68128297Y-106431772D01*
X68161000Y-106596184D01*
X68161000Y-106763816D01*
X68128297Y-106928228D01*
X68064147Y-107083100D01*
X67971015Y-107222481D01*
X67852481Y-107341015D01*
X67713100Y-107434147D01*
X67558228Y-107498297D01*
X67393816Y-107531000D01*
X67226184Y-107531000D01*
X67061772Y-107498297D01*
X66906900Y-107434147D01*
X66767519Y-107341015D01*
X66648985Y-107222481D01*
X66555853Y-107083100D01*
X66491703Y-106928228D01*
X66459000Y-106763816D01*
X66459000Y-106596184D01*
X66491703Y-106431772D01*
X66555853Y-106276900D01*
X66648985Y-106137519D01*
X66767519Y-106018985D01*
X66906900Y-105925853D01*
X67061772Y-105861703D01*
X67226184Y-105829000D01*
X67393816Y-105829000D01*
X67558228Y-105861703D01*
X67558228Y-105861703D01*
G37*
G36*
X65018228Y-105861703D02*
X65173100Y-105925853D01*
X65312481Y-106018985D01*
X65431015Y-106137519D01*
X65524147Y-106276900D01*
X65588297Y-106431772D01*
X65621000Y-106596184D01*
X65621000Y-106763816D01*
X65588297Y-106928228D01*
X65524147Y-107083100D01*
X65431015Y-107222481D01*
X65312481Y-107341015D01*
X65173100Y-107434147D01*
X65018228Y-107498297D01*
X64853816Y-107531000D01*
X64686184Y-107531000D01*
X64521772Y-107498297D01*
X64366900Y-107434147D01*
X64227519Y-107341015D01*
X64108985Y-107222481D01*
X64015853Y-107083100D01*
X63951703Y-106928228D01*
X63919000Y-106763816D01*
X63919000Y-106596184D01*
X63951703Y-106431772D01*
X64015853Y-106276900D01*
X64108985Y-106137519D01*
X64227519Y-106018985D01*
X64366900Y-105925853D01*
X64521772Y-105861703D01*
X64686184Y-105829000D01*
X64853816Y-105829000D01*
X65018228Y-105861703D01*
X65018228Y-105861703D01*
G37*
G36*
X54858228Y-105861703D02*
X55013100Y-105925853D01*
X55152481Y-106018985D01*
X55271015Y-106137519D01*
X55364147Y-106276900D01*
X55428297Y-106431772D01*
X55461000Y-106596184D01*
X55461000Y-106763816D01*
X55428297Y-106928228D01*
X55364147Y-107083100D01*
X55271015Y-107222481D01*
X55152481Y-107341015D01*
X55013100Y-107434147D01*
X54858228Y-107498297D01*
X54693816Y-107531000D01*
X54526184Y-107531000D01*
X54361772Y-107498297D01*
X54206900Y-107434147D01*
X54067519Y-107341015D01*
X53948985Y-107222481D01*
X53855853Y-107083100D01*
X53791703Y-106928228D01*
X53759000Y-106763816D01*
X53759000Y-106596184D01*
X53791703Y-106431772D01*
X53855853Y-106276900D01*
X53948985Y-106137519D01*
X54067519Y-106018985D01*
X54206900Y-105925853D01*
X54361772Y-105861703D01*
X54526184Y-105829000D01*
X54693816Y-105829000D01*
X54858228Y-105861703D01*
X54858228Y-105861703D01*
G37*
G36*
X57398228Y-105861703D02*
X57553100Y-105925853D01*
X57692481Y-106018985D01*
X57811015Y-106137519D01*
X57904147Y-106276900D01*
X57968297Y-106431772D01*
X58001000Y-106596184D01*
X58001000Y-106763816D01*
X57968297Y-106928228D01*
X57904147Y-107083100D01*
X57811015Y-107222481D01*
X57692481Y-107341015D01*
X57553100Y-107434147D01*
X57398228Y-107498297D01*
X57233816Y-107531000D01*
X57066184Y-107531000D01*
X56901772Y-107498297D01*
X56746900Y-107434147D01*
X56607519Y-107341015D01*
X56488985Y-107222481D01*
X56395853Y-107083100D01*
X56331703Y-106928228D01*
X56299000Y-106763816D01*
X56299000Y-106596184D01*
X56331703Y-106431772D01*
X56395853Y-106276900D01*
X56488985Y-106137519D01*
X56607519Y-106018985D01*
X56746900Y-105925853D01*
X56901772Y-105861703D01*
X57066184Y-105829000D01*
X57233816Y-105829000D01*
X57398228Y-105861703D01*
X57398228Y-105861703D01*
G37*
G36*
X59938228Y-105861703D02*
X60093100Y-105925853D01*
X60232481Y-106018985D01*
X60351015Y-106137519D01*
X60444147Y-106276900D01*
X60508297Y-106431772D01*
X60541000Y-106596184D01*
X60541000Y-106763816D01*
X60508297Y-106928228D01*
X60444147Y-107083100D01*
X60351015Y-107222481D01*
X60232481Y-107341015D01*
X60093100Y-107434147D01*
X59938228Y-107498297D01*
X59773816Y-107531000D01*
X59606184Y-107531000D01*
X59441772Y-107498297D01*
X59286900Y-107434147D01*
X59147519Y-107341015D01*
X59028985Y-107222481D01*
X58935853Y-107083100D01*
X58871703Y-106928228D01*
X58839000Y-106763816D01*
X58839000Y-106596184D01*
X58871703Y-106431772D01*
X58935853Y-106276900D01*
X59028985Y-106137519D01*
X59147519Y-106018985D01*
X59286900Y-105925853D01*
X59441772Y-105861703D01*
X59606184Y-105829000D01*
X59773816Y-105829000D01*
X59938228Y-105861703D01*
X59938228Y-105861703D01*
G37*
G36*
X62478228Y-105861703D02*
X62633100Y-105925853D01*
X62772481Y-106018985D01*
X62891015Y-106137519D01*
X62984147Y-106276900D01*
X63048297Y-106431772D01*
X63081000Y-106596184D01*
X63081000Y-106763816D01*
X63048297Y-106928228D01*
X62984147Y-107083100D01*
X62891015Y-107222481D01*
X62772481Y-107341015D01*
X62633100Y-107434147D01*
X62478228Y-107498297D01*
X62313816Y-107531000D01*
X62146184Y-107531000D01*
X61981772Y-107498297D01*
X61826900Y-107434147D01*
X61687519Y-107341015D01*
X61568985Y-107222481D01*
X61475853Y-107083100D01*
X61411703Y-106928228D01*
X61379000Y-106763816D01*
X61379000Y-106596184D01*
X61411703Y-106431772D01*
X61475853Y-106276900D01*
X61568985Y-106137519D01*
X61687519Y-106018985D01*
X61826900Y-105925853D01*
X61981772Y-105861703D01*
X62146184Y-105829000D01*
X62313816Y-105829000D01*
X62478228Y-105861703D01*
X62478228Y-105861703D01*
G37*
G36*
X72638228Y-105861703D02*
X72793100Y-105925853D01*
X72932481Y-106018985D01*
X73051015Y-106137519D01*
X73144147Y-106276900D01*
X73208297Y-106431772D01*
X73241000Y-106596184D01*
X73241000Y-106763816D01*
X73208297Y-106928228D01*
X73144147Y-107083100D01*
X73051015Y-107222481D01*
X72932481Y-107341015D01*
X72793100Y-107434147D01*
X72638228Y-107498297D01*
X72473816Y-107531000D01*
X72306184Y-107531000D01*
X72141772Y-107498297D01*
X71986900Y-107434147D01*
X71847519Y-107341015D01*
X71728985Y-107222481D01*
X71635853Y-107083100D01*
X71571703Y-106928228D01*
X71539000Y-106763816D01*
X71539000Y-106596184D01*
X71571703Y-106431772D01*
X71635853Y-106276900D01*
X71728985Y-106137519D01*
X71847519Y-106018985D01*
X71986900Y-105925853D01*
X72141772Y-105861703D01*
X72306184Y-105829000D01*
X72473816Y-105829000D01*
X72638228Y-105861703D01*
X72638228Y-105861703D01*
G37*
G36*
X130606800Y-105166160D02*
X128473200Y-105166160D01*
X128473200Y-103032560D01*
X130606800Y-103032560D01*
X130606800Y-105166160D01*
X130606800Y-105166160D01*
G37*
G36*
X120446800Y-105166160D02*
X118313200Y-105166160D01*
X118313200Y-103032560D01*
X120446800Y-103032560D01*
X120446800Y-105166160D01*
X120446800Y-105166160D01*
G37*
G36*
X54858228Y-103321703D02*
X55013100Y-103385853D01*
X55152481Y-103478985D01*
X55271015Y-103597519D01*
X55364147Y-103736900D01*
X55428297Y-103891772D01*
X55461000Y-104056184D01*
X55461000Y-104223816D01*
X55428297Y-104388228D01*
X55364147Y-104543100D01*
X55271015Y-104682481D01*
X55152481Y-104801015D01*
X55013100Y-104894147D01*
X54858228Y-104958297D01*
X54693816Y-104991000D01*
X54526184Y-104991000D01*
X54361772Y-104958297D01*
X54206900Y-104894147D01*
X54067519Y-104801015D01*
X53948985Y-104682481D01*
X53855853Y-104543100D01*
X53791703Y-104388228D01*
X53759000Y-104223816D01*
X53759000Y-104056184D01*
X53791703Y-103891772D01*
X53855853Y-103736900D01*
X53948985Y-103597519D01*
X54067519Y-103478985D01*
X54206900Y-103385853D01*
X54361772Y-103321703D01*
X54526184Y-103289000D01*
X54693816Y-103289000D01*
X54858228Y-103321703D01*
X54858228Y-103321703D01*
G37*
G36*
X57398228Y-103321703D02*
X57553100Y-103385853D01*
X57692481Y-103478985D01*
X57811015Y-103597519D01*
X57904147Y-103736900D01*
X57968297Y-103891772D01*
X58001000Y-104056184D01*
X58001000Y-104223816D01*
X57968297Y-104388228D01*
X57904147Y-104543100D01*
X57811015Y-104682481D01*
X57692481Y-104801015D01*
X57553100Y-104894147D01*
X57398228Y-104958297D01*
X57233816Y-104991000D01*
X57066184Y-104991000D01*
X56901772Y-104958297D01*
X56746900Y-104894147D01*
X56607519Y-104801015D01*
X56488985Y-104682481D01*
X56395853Y-104543100D01*
X56331703Y-104388228D01*
X56299000Y-104223816D01*
X56299000Y-104056184D01*
X56331703Y-103891772D01*
X56395853Y-103736900D01*
X56488985Y-103597519D01*
X56607519Y-103478985D01*
X56746900Y-103385853D01*
X56901772Y-103321703D01*
X57066184Y-103289000D01*
X57233816Y-103289000D01*
X57398228Y-103321703D01*
X57398228Y-103321703D01*
G37*
G36*
X62478228Y-103321703D02*
X62633100Y-103385853D01*
X62772481Y-103478985D01*
X62891015Y-103597519D01*
X62984147Y-103736900D01*
X63048297Y-103891772D01*
X63081000Y-104056184D01*
X63081000Y-104223816D01*
X63048297Y-104388228D01*
X62984147Y-104543100D01*
X62891015Y-104682481D01*
X62772481Y-104801015D01*
X62633100Y-104894147D01*
X62478228Y-104958297D01*
X62313816Y-104991000D01*
X62146184Y-104991000D01*
X61981772Y-104958297D01*
X61826900Y-104894147D01*
X61687519Y-104801015D01*
X61568985Y-104682481D01*
X61475853Y-104543100D01*
X61411703Y-104388228D01*
X61379000Y-104223816D01*
X61379000Y-104056184D01*
X61411703Y-103891772D01*
X61475853Y-103736900D01*
X61568985Y-103597519D01*
X61687519Y-103478985D01*
X61826900Y-103385853D01*
X61981772Y-103321703D01*
X62146184Y-103289000D01*
X62313816Y-103289000D01*
X62478228Y-103321703D01*
X62478228Y-103321703D01*
G37*
G36*
X65018228Y-103321703D02*
X65173100Y-103385853D01*
X65312481Y-103478985D01*
X65431015Y-103597519D01*
X65524147Y-103736900D01*
X65588297Y-103891772D01*
X65621000Y-104056184D01*
X65621000Y-104223816D01*
X65588297Y-104388228D01*
X65524147Y-104543100D01*
X65431015Y-104682481D01*
X65312481Y-104801015D01*
X65173100Y-104894147D01*
X65018228Y-104958297D01*
X64853816Y-104991000D01*
X64686184Y-104991000D01*
X64521772Y-104958297D01*
X64366900Y-104894147D01*
X64227519Y-104801015D01*
X64108985Y-104682481D01*
X64015853Y-104543100D01*
X63951703Y-104388228D01*
X63919000Y-104223816D01*
X63919000Y-104056184D01*
X63951703Y-103891772D01*
X64015853Y-103736900D01*
X64108985Y-103597519D01*
X64227519Y-103478985D01*
X64366900Y-103385853D01*
X64521772Y-103321703D01*
X64686184Y-103289000D01*
X64853816Y-103289000D01*
X65018228Y-103321703D01*
X65018228Y-103321703D01*
G37*
G36*
X70098228Y-103321703D02*
X70253100Y-103385853D01*
X70392481Y-103478985D01*
X70511015Y-103597519D01*
X70604147Y-103736900D01*
X70668297Y-103891772D01*
X70701000Y-104056184D01*
X70701000Y-104223816D01*
X70668297Y-104388228D01*
X70604147Y-104543100D01*
X70511015Y-104682481D01*
X70392481Y-104801015D01*
X70253100Y-104894147D01*
X70098228Y-104958297D01*
X69933816Y-104991000D01*
X69766184Y-104991000D01*
X69601772Y-104958297D01*
X69446900Y-104894147D01*
X69307519Y-104801015D01*
X69188985Y-104682481D01*
X69095853Y-104543100D01*
X69031703Y-104388228D01*
X68999000Y-104223816D01*
X68999000Y-104056184D01*
X69031703Y-103891772D01*
X69095853Y-103736900D01*
X69188985Y-103597519D01*
X69307519Y-103478985D01*
X69446900Y-103385853D01*
X69601772Y-103321703D01*
X69766184Y-103289000D01*
X69933816Y-103289000D01*
X70098228Y-103321703D01*
X70098228Y-103321703D01*
G37*
G36*
X67558228Y-103321703D02*
X67713100Y-103385853D01*
X67852481Y-103478985D01*
X67971015Y-103597519D01*
X68064147Y-103736900D01*
X68128297Y-103891772D01*
X68161000Y-104056184D01*
X68161000Y-104223816D01*
X68128297Y-104388228D01*
X68064147Y-104543100D01*
X67971015Y-104682481D01*
X67852481Y-104801015D01*
X67713100Y-104894147D01*
X67558228Y-104958297D01*
X67393816Y-104991000D01*
X67226184Y-104991000D01*
X67061772Y-104958297D01*
X66906900Y-104894147D01*
X66767519Y-104801015D01*
X66648985Y-104682481D01*
X66555853Y-104543100D01*
X66491703Y-104388228D01*
X66459000Y-104223816D01*
X66459000Y-104056184D01*
X66491703Y-103891772D01*
X66555853Y-103736900D01*
X66648985Y-103597519D01*
X66767519Y-103478985D01*
X66906900Y-103385853D01*
X67061772Y-103321703D01*
X67226184Y-103289000D01*
X67393816Y-103289000D01*
X67558228Y-103321703D01*
X67558228Y-103321703D01*
G37*
G36*
X59938228Y-103321703D02*
X60093100Y-103385853D01*
X60232481Y-103478985D01*
X60351015Y-103597519D01*
X60444147Y-103736900D01*
X60508297Y-103891772D01*
X60541000Y-104056184D01*
X60541000Y-104223816D01*
X60508297Y-104388228D01*
X60444147Y-104543100D01*
X60351015Y-104682481D01*
X60232481Y-104801015D01*
X60093100Y-104894147D01*
X59938228Y-104958297D01*
X59773816Y-104991000D01*
X59606184Y-104991000D01*
X59441772Y-104958297D01*
X59286900Y-104894147D01*
X59147519Y-104801015D01*
X59028985Y-104682481D01*
X58935853Y-104543100D01*
X58871703Y-104388228D01*
X58839000Y-104223816D01*
X58839000Y-104056184D01*
X58871703Y-103891772D01*
X58935853Y-103736900D01*
X59028985Y-103597519D01*
X59147519Y-103478985D01*
X59286900Y-103385853D01*
X59441772Y-103321703D01*
X59606184Y-103289000D01*
X59773816Y-103289000D01*
X59938228Y-103321703D01*
X59938228Y-103321703D01*
G37*
G36*
X72638228Y-103321703D02*
X72793100Y-103385853D01*
X72932481Y-103478985D01*
X73051015Y-103597519D01*
X73144147Y-103736900D01*
X73208297Y-103891772D01*
X73241000Y-104056184D01*
X73241000Y-104223816D01*
X73208297Y-104388228D01*
X73144147Y-104543100D01*
X73051015Y-104682481D01*
X72932481Y-104801015D01*
X72793100Y-104894147D01*
X72638228Y-104958297D01*
X72473816Y-104991000D01*
X72306184Y-104991000D01*
X72141772Y-104958297D01*
X71986900Y-104894147D01*
X71847519Y-104801015D01*
X71728985Y-104682481D01*
X71635853Y-104543100D01*
X71571703Y-104388228D01*
X71539000Y-104223816D01*
X71539000Y-104056184D01*
X71571703Y-103891772D01*
X71635853Y-103736900D01*
X71728985Y-103597519D01*
X71847519Y-103478985D01*
X71986900Y-103385853D01*
X72141772Y-103321703D01*
X72306184Y-103289000D01*
X72473816Y-103289000D01*
X72638228Y-103321703D01*
X72638228Y-103321703D01*
G37*
G36*
X52318228Y-100781703D02*
X52473100Y-100845853D01*
X52612481Y-100938985D01*
X52731015Y-101057519D01*
X52824147Y-101196900D01*
X52888297Y-101351772D01*
X52921000Y-101516184D01*
X52921000Y-101683816D01*
X52888297Y-101848228D01*
X52824147Y-102003100D01*
X52731015Y-102142481D01*
X52612481Y-102261015D01*
X52473100Y-102354147D01*
X52318228Y-102418297D01*
X52153816Y-102451000D01*
X51986184Y-102451000D01*
X51821772Y-102418297D01*
X51666900Y-102354147D01*
X51527519Y-102261015D01*
X51408985Y-102142481D01*
X51315853Y-102003100D01*
X51251703Y-101848228D01*
X51219000Y-101683816D01*
X51219000Y-101516184D01*
X51251703Y-101351772D01*
X51315853Y-101196900D01*
X51408985Y-101057519D01*
X51527519Y-100938985D01*
X51666900Y-100845853D01*
X51821772Y-100781703D01*
X51986184Y-100749000D01*
X52153816Y-100749000D01*
X52318228Y-100781703D01*
X52318228Y-100781703D01*
G37*
G36*
X49778228Y-100781703D02*
X49933100Y-100845853D01*
X50072481Y-100938985D01*
X50191015Y-101057519D01*
X50284147Y-101196900D01*
X50348297Y-101351772D01*
X50381000Y-101516184D01*
X50381000Y-101683816D01*
X50348297Y-101848228D01*
X50284147Y-102003100D01*
X50191015Y-102142481D01*
X50072481Y-102261015D01*
X49933100Y-102354147D01*
X49778228Y-102418297D01*
X49613816Y-102451000D01*
X49446184Y-102451000D01*
X49281772Y-102418297D01*
X49126900Y-102354147D01*
X48987519Y-102261015D01*
X48868985Y-102142481D01*
X48775853Y-102003100D01*
X48711703Y-101848228D01*
X48679000Y-101683816D01*
X48679000Y-101516184D01*
X48711703Y-101351772D01*
X48775853Y-101196900D01*
X48868985Y-101057519D01*
X48987519Y-100938985D01*
X49126900Y-100845853D01*
X49281772Y-100781703D01*
X49446184Y-100749000D01*
X49613816Y-100749000D01*
X49778228Y-100781703D01*
X49778228Y-100781703D01*
G37*
G36*
X47238228Y-100781703D02*
X47393100Y-100845853D01*
X47532481Y-100938985D01*
X47651015Y-101057519D01*
X47744147Y-101196900D01*
X47808297Y-101351772D01*
X47841000Y-101516184D01*
X47841000Y-101683816D01*
X47808297Y-101848228D01*
X47744147Y-102003100D01*
X47651015Y-102142481D01*
X47532481Y-102261015D01*
X47393100Y-102354147D01*
X47238228Y-102418297D01*
X47073816Y-102451000D01*
X46906184Y-102451000D01*
X46741772Y-102418297D01*
X46586900Y-102354147D01*
X46447519Y-102261015D01*
X46328985Y-102142481D01*
X46235853Y-102003100D01*
X46171703Y-101848228D01*
X46139000Y-101683816D01*
X46139000Y-101516184D01*
X46171703Y-101351772D01*
X46235853Y-101196900D01*
X46328985Y-101057519D01*
X46447519Y-100938985D01*
X46586900Y-100845853D01*
X46741772Y-100781703D01*
X46906184Y-100749000D01*
X47073816Y-100749000D01*
X47238228Y-100781703D01*
X47238228Y-100781703D01*
G37*
G36*
X42158228Y-100781703D02*
X42313100Y-100845853D01*
X42452481Y-100938985D01*
X42571015Y-101057519D01*
X42664147Y-101196900D01*
X42728297Y-101351772D01*
X42761000Y-101516184D01*
X42761000Y-101683816D01*
X42728297Y-101848228D01*
X42664147Y-102003100D01*
X42571015Y-102142481D01*
X42452481Y-102261015D01*
X42313100Y-102354147D01*
X42158228Y-102418297D01*
X41993816Y-102451000D01*
X41826184Y-102451000D01*
X41661772Y-102418297D01*
X41506900Y-102354147D01*
X41367519Y-102261015D01*
X41248985Y-102142481D01*
X41155853Y-102003100D01*
X41091703Y-101848228D01*
X41059000Y-101683816D01*
X41059000Y-101516184D01*
X41091703Y-101351772D01*
X41155853Y-101196900D01*
X41248985Y-101057519D01*
X41367519Y-100938985D01*
X41506900Y-100845853D01*
X41661772Y-100781703D01*
X41826184Y-100749000D01*
X41993816Y-100749000D01*
X42158228Y-100781703D01*
X42158228Y-100781703D01*
G37*
G36*
X72638228Y-100781703D02*
X72793100Y-100845853D01*
X72932481Y-100938985D01*
X73051015Y-101057519D01*
X73144147Y-101196900D01*
X73208297Y-101351772D01*
X73241000Y-101516184D01*
X73241000Y-101683816D01*
X73208297Y-101848228D01*
X73144147Y-102003100D01*
X73051015Y-102142481D01*
X72932481Y-102261015D01*
X72793100Y-102354147D01*
X72638228Y-102418297D01*
X72473816Y-102451000D01*
X72306184Y-102451000D01*
X72141772Y-102418297D01*
X71986900Y-102354147D01*
X71847519Y-102261015D01*
X71728985Y-102142481D01*
X71635853Y-102003100D01*
X71571703Y-101848228D01*
X71539000Y-101683816D01*
X71539000Y-101516184D01*
X71571703Y-101351772D01*
X71635853Y-101196900D01*
X71728985Y-101057519D01*
X71847519Y-100938985D01*
X71986900Y-100845853D01*
X72141772Y-100781703D01*
X72306184Y-100749000D01*
X72473816Y-100749000D01*
X72638228Y-100781703D01*
X72638228Y-100781703D01*
G37*
G36*
X129851174Y-98074836D02*
X130045318Y-98155253D01*
X130220048Y-98272004D01*
X130368636Y-98420592D01*
X130485387Y-98595322D01*
X130565804Y-98789466D01*
X130606800Y-98995568D01*
X130606800Y-99205712D01*
X130565804Y-99411814D01*
X130485387Y-99605958D01*
X130368636Y-99780688D01*
X130220048Y-99929276D01*
X130045318Y-100046027D01*
X129851174Y-100126444D01*
X129645072Y-100167440D01*
X129434928Y-100167440D01*
X129228826Y-100126444D01*
X129034682Y-100046027D01*
X128859952Y-99929276D01*
X128711364Y-99780688D01*
X128594613Y-99605958D01*
X128514196Y-99411814D01*
X128473200Y-99205712D01*
X128473200Y-98995568D01*
X128514196Y-98789466D01*
X128594613Y-98595322D01*
X128711364Y-98420592D01*
X128859952Y-98272004D01*
X129034682Y-98155253D01*
X129228826Y-98074836D01*
X129434928Y-98033840D01*
X129645072Y-98033840D01*
X129851174Y-98074836D01*
X129851174Y-98074836D01*
G37*
G36*
X119691174Y-98074836D02*
X119885318Y-98155253D01*
X120060048Y-98272004D01*
X120208636Y-98420592D01*
X120325387Y-98595322D01*
X120405804Y-98789466D01*
X120446800Y-98995568D01*
X120446800Y-99205712D01*
X120405804Y-99411814D01*
X120325387Y-99605958D01*
X120208636Y-99780688D01*
X120060048Y-99929276D01*
X119885318Y-100046027D01*
X119691174Y-100126444D01*
X119485072Y-100167440D01*
X119274928Y-100167440D01*
X119068826Y-100126444D01*
X118874682Y-100046027D01*
X118699952Y-99929276D01*
X118551364Y-99780688D01*
X118434613Y-99605958D01*
X118354196Y-99411814D01*
X118313200Y-99205712D01*
X118313200Y-98995568D01*
X118354196Y-98789466D01*
X118434613Y-98595322D01*
X118551364Y-98420592D01*
X118699952Y-98272004D01*
X118874682Y-98155253D01*
X119068826Y-98074836D01*
X119274928Y-98033840D01*
X119485072Y-98033840D01*
X119691174Y-98074836D01*
X119691174Y-98074836D01*
G37*
G36*
X92793364Y-98184286D02*
X92859548Y-98190804D01*
X92972774Y-98225151D01*
X93029388Y-98242324D01*
X93148242Y-98305854D01*
X93185912Y-98325989D01*
X93221650Y-98355319D01*
X93323107Y-98438581D01*
X93406369Y-98540038D01*
X93435699Y-98575776D01*
X93435700Y-98575778D01*
X93519364Y-98732300D01*
X93519364Y-98732301D01*
X93570884Y-98902140D01*
X93588280Y-99078767D01*
X93570884Y-99255394D01*
X93554857Y-99308228D01*
X93519364Y-99425234D01*
X93499124Y-99463100D01*
X93435699Y-99581758D01*
X93406369Y-99617496D01*
X93323107Y-99718953D01*
X93221650Y-99802215D01*
X93185912Y-99831545D01*
X93185910Y-99831546D01*
X93029388Y-99915210D01*
X92983018Y-99929276D01*
X92859548Y-99966730D01*
X92793363Y-99973249D01*
X92727181Y-99979767D01*
X92638661Y-99979767D01*
X92572478Y-99973248D01*
X92506294Y-99966730D01*
X92382824Y-99929276D01*
X92336454Y-99915210D01*
X92179932Y-99831546D01*
X92179930Y-99831545D01*
X92144192Y-99802215D01*
X92042735Y-99718953D01*
X91959473Y-99617496D01*
X91930143Y-99581758D01*
X91866718Y-99463100D01*
X91846478Y-99425234D01*
X91810985Y-99308228D01*
X91794958Y-99255394D01*
X91777562Y-99078767D01*
X91794958Y-98902140D01*
X91846478Y-98732301D01*
X91846478Y-98732300D01*
X91930142Y-98575778D01*
X91930143Y-98575776D01*
X91959473Y-98540038D01*
X92042735Y-98438581D01*
X92144192Y-98355319D01*
X92179930Y-98325989D01*
X92217600Y-98305854D01*
X92336454Y-98242324D01*
X92393068Y-98225151D01*
X92506294Y-98190804D01*
X92572478Y-98184286D01*
X92638661Y-98177767D01*
X92727181Y-98177767D01*
X92793364Y-98184286D01*
X92793364Y-98184286D01*
G37*
G36*
X96123921Y-99979767D02*
X94321921Y-99979767D01*
X94321921Y-98177767D01*
X96123921Y-98177767D01*
X96123921Y-99979767D01*
X96123921Y-99979767D01*
G37*
G36*
X87713364Y-98184286D02*
X87779548Y-98190804D01*
X87892774Y-98225151D01*
X87949388Y-98242324D01*
X88068242Y-98305854D01*
X88105912Y-98325989D01*
X88141650Y-98355319D01*
X88243107Y-98438581D01*
X88326369Y-98540038D01*
X88355699Y-98575776D01*
X88355700Y-98575778D01*
X88439364Y-98732300D01*
X88439364Y-98732301D01*
X88490884Y-98902140D01*
X88508280Y-99078767D01*
X88490884Y-99255394D01*
X88474857Y-99308228D01*
X88439364Y-99425234D01*
X88419124Y-99463100D01*
X88355699Y-99581758D01*
X88326369Y-99617496D01*
X88243107Y-99718953D01*
X88141650Y-99802215D01*
X88105912Y-99831545D01*
X88105910Y-99831546D01*
X87949388Y-99915210D01*
X87903018Y-99929276D01*
X87779548Y-99966730D01*
X87713363Y-99973249D01*
X87647181Y-99979767D01*
X87558661Y-99979767D01*
X87492478Y-99973248D01*
X87426294Y-99966730D01*
X87302824Y-99929276D01*
X87256454Y-99915210D01*
X87099932Y-99831546D01*
X87099930Y-99831545D01*
X87064192Y-99802215D01*
X86962735Y-99718953D01*
X86879473Y-99617496D01*
X86850143Y-99581758D01*
X86786718Y-99463100D01*
X86766478Y-99425234D01*
X86730985Y-99308228D01*
X86714958Y-99255394D01*
X86697562Y-99078767D01*
X86714958Y-98902140D01*
X86766478Y-98732301D01*
X86766478Y-98732300D01*
X86850142Y-98575778D01*
X86850143Y-98575776D01*
X86879473Y-98540038D01*
X86962735Y-98438581D01*
X87064192Y-98355319D01*
X87099930Y-98325989D01*
X87137600Y-98305854D01*
X87256454Y-98242324D01*
X87313068Y-98225151D01*
X87426294Y-98190804D01*
X87492478Y-98184286D01*
X87558661Y-98177767D01*
X87647181Y-98177767D01*
X87713364Y-98184286D01*
X87713364Y-98184286D01*
G37*
G36*
X90253364Y-98184286D02*
X90319548Y-98190804D01*
X90432774Y-98225151D01*
X90489388Y-98242324D01*
X90608242Y-98305854D01*
X90645912Y-98325989D01*
X90681650Y-98355319D01*
X90783107Y-98438581D01*
X90866369Y-98540038D01*
X90895699Y-98575776D01*
X90895700Y-98575778D01*
X90979364Y-98732300D01*
X90979364Y-98732301D01*
X91030884Y-98902140D01*
X91048280Y-99078767D01*
X91030884Y-99255394D01*
X91014857Y-99308228D01*
X90979364Y-99425234D01*
X90959124Y-99463100D01*
X90895699Y-99581758D01*
X90866369Y-99617496D01*
X90783107Y-99718953D01*
X90681650Y-99802215D01*
X90645912Y-99831545D01*
X90645910Y-99831546D01*
X90489388Y-99915210D01*
X90443018Y-99929276D01*
X90319548Y-99966730D01*
X90253363Y-99973249D01*
X90187181Y-99979767D01*
X90098661Y-99979767D01*
X90032478Y-99973248D01*
X89966294Y-99966730D01*
X89842824Y-99929276D01*
X89796454Y-99915210D01*
X89639932Y-99831546D01*
X89639930Y-99831545D01*
X89604192Y-99802215D01*
X89502735Y-99718953D01*
X89419473Y-99617496D01*
X89390143Y-99581758D01*
X89326718Y-99463100D01*
X89306478Y-99425234D01*
X89270985Y-99308228D01*
X89254958Y-99255394D01*
X89237562Y-99078767D01*
X89254958Y-98902140D01*
X89306478Y-98732301D01*
X89306478Y-98732300D01*
X89390142Y-98575778D01*
X89390143Y-98575776D01*
X89419473Y-98540038D01*
X89502735Y-98438581D01*
X89604192Y-98355319D01*
X89639930Y-98325989D01*
X89677600Y-98305854D01*
X89796454Y-98242324D01*
X89853068Y-98225151D01*
X89966294Y-98190804D01*
X90032478Y-98184286D01*
X90098661Y-98177767D01*
X90187181Y-98177767D01*
X90253364Y-98184286D01*
X90253364Y-98184286D01*
G37*
G36*
X42158228Y-98241703D02*
X42313100Y-98305853D01*
X42452481Y-98398985D01*
X42571015Y-98517519D01*
X42664147Y-98656900D01*
X42728297Y-98811772D01*
X42761000Y-98976184D01*
X42761000Y-99143816D01*
X42728297Y-99308228D01*
X42664147Y-99463100D01*
X42571015Y-99602481D01*
X42452481Y-99721015D01*
X42313100Y-99814147D01*
X42158228Y-99878297D01*
X41993816Y-99911000D01*
X41826184Y-99911000D01*
X41661772Y-99878297D01*
X41506900Y-99814147D01*
X41367519Y-99721015D01*
X41248985Y-99602481D01*
X41155853Y-99463100D01*
X41091703Y-99308228D01*
X41059000Y-99143816D01*
X41059000Y-98976184D01*
X41091703Y-98811772D01*
X41155853Y-98656900D01*
X41248985Y-98517519D01*
X41367519Y-98398985D01*
X41506900Y-98305853D01*
X41661772Y-98241703D01*
X41826184Y-98209000D01*
X41993816Y-98209000D01*
X42158228Y-98241703D01*
X42158228Y-98241703D01*
G37*
G36*
X59938228Y-98241703D02*
X60093100Y-98305853D01*
X60232481Y-98398985D01*
X60351015Y-98517519D01*
X60444147Y-98656900D01*
X60508297Y-98811772D01*
X60541000Y-98976184D01*
X60541000Y-99143816D01*
X60508297Y-99308228D01*
X60444147Y-99463100D01*
X60351015Y-99602481D01*
X60232481Y-99721015D01*
X60093100Y-99814147D01*
X59938228Y-99878297D01*
X59773816Y-99911000D01*
X59606184Y-99911000D01*
X59441772Y-99878297D01*
X59286900Y-99814147D01*
X59147519Y-99721015D01*
X59028985Y-99602481D01*
X58935853Y-99463100D01*
X58871703Y-99308228D01*
X58839000Y-99143816D01*
X58839000Y-98976184D01*
X58871703Y-98811772D01*
X58935853Y-98656900D01*
X59028985Y-98517519D01*
X59147519Y-98398985D01*
X59286900Y-98305853D01*
X59441772Y-98241703D01*
X59606184Y-98209000D01*
X59773816Y-98209000D01*
X59938228Y-98241703D01*
X59938228Y-98241703D01*
G37*
G36*
X57398228Y-98241703D02*
X57553100Y-98305853D01*
X57692481Y-98398985D01*
X57811015Y-98517519D01*
X57904147Y-98656900D01*
X57968297Y-98811772D01*
X58001000Y-98976184D01*
X58001000Y-99143816D01*
X57968297Y-99308228D01*
X57904147Y-99463100D01*
X57811015Y-99602481D01*
X57692481Y-99721015D01*
X57553100Y-99814147D01*
X57398228Y-99878297D01*
X57233816Y-99911000D01*
X57066184Y-99911000D01*
X56901772Y-99878297D01*
X56746900Y-99814147D01*
X56607519Y-99721015D01*
X56488985Y-99602481D01*
X56395853Y-99463100D01*
X56331703Y-99308228D01*
X56299000Y-99143816D01*
X56299000Y-98976184D01*
X56331703Y-98811772D01*
X56395853Y-98656900D01*
X56488985Y-98517519D01*
X56607519Y-98398985D01*
X56746900Y-98305853D01*
X56901772Y-98241703D01*
X57066184Y-98209000D01*
X57233816Y-98209000D01*
X57398228Y-98241703D01*
X57398228Y-98241703D01*
G37*
G36*
X54858228Y-98241703D02*
X55013100Y-98305853D01*
X55152481Y-98398985D01*
X55271015Y-98517519D01*
X55364147Y-98656900D01*
X55428297Y-98811772D01*
X55461000Y-98976184D01*
X55461000Y-99143816D01*
X55428297Y-99308228D01*
X55364147Y-99463100D01*
X55271015Y-99602481D01*
X55152481Y-99721015D01*
X55013100Y-99814147D01*
X54858228Y-99878297D01*
X54693816Y-99911000D01*
X54526184Y-99911000D01*
X54361772Y-99878297D01*
X54206900Y-99814147D01*
X54067519Y-99721015D01*
X53948985Y-99602481D01*
X53855853Y-99463100D01*
X53791703Y-99308228D01*
X53759000Y-99143816D01*
X53759000Y-98976184D01*
X53791703Y-98811772D01*
X53855853Y-98656900D01*
X53948985Y-98517519D01*
X54067519Y-98398985D01*
X54206900Y-98305853D01*
X54361772Y-98241703D01*
X54526184Y-98209000D01*
X54693816Y-98209000D01*
X54858228Y-98241703D01*
X54858228Y-98241703D01*
G37*
G36*
X52318228Y-98241703D02*
X52473100Y-98305853D01*
X52612481Y-98398985D01*
X52731015Y-98517519D01*
X52824147Y-98656900D01*
X52888297Y-98811772D01*
X52921000Y-98976184D01*
X52921000Y-99143816D01*
X52888297Y-99308228D01*
X52824147Y-99463100D01*
X52731015Y-99602481D01*
X52612481Y-99721015D01*
X52473100Y-99814147D01*
X52318228Y-99878297D01*
X52153816Y-99911000D01*
X51986184Y-99911000D01*
X51821772Y-99878297D01*
X51666900Y-99814147D01*
X51527519Y-99721015D01*
X51408985Y-99602481D01*
X51315853Y-99463100D01*
X51251703Y-99308228D01*
X51219000Y-99143816D01*
X51219000Y-98976184D01*
X51251703Y-98811772D01*
X51315853Y-98656900D01*
X51408985Y-98517519D01*
X51527519Y-98398985D01*
X51666900Y-98305853D01*
X51821772Y-98241703D01*
X51986184Y-98209000D01*
X52153816Y-98209000D01*
X52318228Y-98241703D01*
X52318228Y-98241703D01*
G37*
G36*
X49778228Y-98241703D02*
X49933100Y-98305853D01*
X50072481Y-98398985D01*
X50191015Y-98517519D01*
X50284147Y-98656900D01*
X50348297Y-98811772D01*
X50381000Y-98976184D01*
X50381000Y-99143816D01*
X50348297Y-99308228D01*
X50284147Y-99463100D01*
X50191015Y-99602481D01*
X50072481Y-99721015D01*
X49933100Y-99814147D01*
X49778228Y-99878297D01*
X49613816Y-99911000D01*
X49446184Y-99911000D01*
X49281772Y-99878297D01*
X49126900Y-99814147D01*
X48987519Y-99721015D01*
X48868985Y-99602481D01*
X48775853Y-99463100D01*
X48711703Y-99308228D01*
X48679000Y-99143816D01*
X48679000Y-98976184D01*
X48711703Y-98811772D01*
X48775853Y-98656900D01*
X48868985Y-98517519D01*
X48987519Y-98398985D01*
X49126900Y-98305853D01*
X49281772Y-98241703D01*
X49446184Y-98209000D01*
X49613816Y-98209000D01*
X49778228Y-98241703D01*
X49778228Y-98241703D01*
G37*
G36*
X47238228Y-98241703D02*
X47393100Y-98305853D01*
X47532481Y-98398985D01*
X47651015Y-98517519D01*
X47744147Y-98656900D01*
X47808297Y-98811772D01*
X47841000Y-98976184D01*
X47841000Y-99143816D01*
X47808297Y-99308228D01*
X47744147Y-99463100D01*
X47651015Y-99602481D01*
X47532481Y-99721015D01*
X47393100Y-99814147D01*
X47238228Y-99878297D01*
X47073816Y-99911000D01*
X46906184Y-99911000D01*
X46741772Y-99878297D01*
X46586900Y-99814147D01*
X46447519Y-99721015D01*
X46328985Y-99602481D01*
X46235853Y-99463100D01*
X46171703Y-99308228D01*
X46139000Y-99143816D01*
X46139000Y-98976184D01*
X46171703Y-98811772D01*
X46235853Y-98656900D01*
X46328985Y-98517519D01*
X46447519Y-98398985D01*
X46586900Y-98305853D01*
X46741772Y-98241703D01*
X46906184Y-98209000D01*
X47073816Y-98209000D01*
X47238228Y-98241703D01*
X47238228Y-98241703D01*
G37*
G36*
X44698228Y-98241703D02*
X44853100Y-98305853D01*
X44992481Y-98398985D01*
X45111015Y-98517519D01*
X45204147Y-98656900D01*
X45268297Y-98811772D01*
X45301000Y-98976184D01*
X45301000Y-99143816D01*
X45268297Y-99308228D01*
X45204147Y-99463100D01*
X45111015Y-99602481D01*
X44992481Y-99721015D01*
X44853100Y-99814147D01*
X44698228Y-99878297D01*
X44533816Y-99911000D01*
X44366184Y-99911000D01*
X44201772Y-99878297D01*
X44046900Y-99814147D01*
X43907519Y-99721015D01*
X43788985Y-99602481D01*
X43695853Y-99463100D01*
X43631703Y-99308228D01*
X43599000Y-99143816D01*
X43599000Y-98976184D01*
X43631703Y-98811772D01*
X43695853Y-98656900D01*
X43788985Y-98517519D01*
X43907519Y-98398985D01*
X44046900Y-98305853D01*
X44201772Y-98241703D01*
X44366184Y-98209000D01*
X44533816Y-98209000D01*
X44698228Y-98241703D01*
X44698228Y-98241703D01*
G37*
G36*
X39618228Y-98241703D02*
X39773100Y-98305853D01*
X39912481Y-98398985D01*
X40031015Y-98517519D01*
X40124147Y-98656900D01*
X40188297Y-98811772D01*
X40221000Y-98976184D01*
X40221000Y-99143816D01*
X40188297Y-99308228D01*
X40124147Y-99463100D01*
X40031015Y-99602481D01*
X39912481Y-99721015D01*
X39773100Y-99814147D01*
X39618228Y-99878297D01*
X39453816Y-99911000D01*
X39286184Y-99911000D01*
X39121772Y-99878297D01*
X38966900Y-99814147D01*
X38827519Y-99721015D01*
X38708985Y-99602481D01*
X38615853Y-99463100D01*
X38551703Y-99308228D01*
X38519000Y-99143816D01*
X38519000Y-98976184D01*
X38551703Y-98811772D01*
X38615853Y-98656900D01*
X38708985Y-98517519D01*
X38827519Y-98398985D01*
X38966900Y-98305853D01*
X39121772Y-98241703D01*
X39286184Y-98209000D01*
X39453816Y-98209000D01*
X39618228Y-98241703D01*
X39618228Y-98241703D01*
G37*
G36*
X65018228Y-98241703D02*
X65173100Y-98305853D01*
X65312481Y-98398985D01*
X65431015Y-98517519D01*
X65524147Y-98656900D01*
X65588297Y-98811772D01*
X65621000Y-98976184D01*
X65621000Y-99143816D01*
X65588297Y-99308228D01*
X65524147Y-99463100D01*
X65431015Y-99602481D01*
X65312481Y-99721015D01*
X65173100Y-99814147D01*
X65018228Y-99878297D01*
X64853816Y-99911000D01*
X64686184Y-99911000D01*
X64521772Y-99878297D01*
X64366900Y-99814147D01*
X64227519Y-99721015D01*
X64108985Y-99602481D01*
X64015853Y-99463100D01*
X63951703Y-99308228D01*
X63919000Y-99143816D01*
X63919000Y-98976184D01*
X63951703Y-98811772D01*
X64015853Y-98656900D01*
X64108985Y-98517519D01*
X64227519Y-98398985D01*
X64366900Y-98305853D01*
X64521772Y-98241703D01*
X64686184Y-98209000D01*
X64853816Y-98209000D01*
X65018228Y-98241703D01*
X65018228Y-98241703D01*
G37*
G36*
X67558228Y-98241703D02*
X67713100Y-98305853D01*
X67852481Y-98398985D01*
X67971015Y-98517519D01*
X68064147Y-98656900D01*
X68128297Y-98811772D01*
X68161000Y-98976184D01*
X68161000Y-99143816D01*
X68128297Y-99308228D01*
X68064147Y-99463100D01*
X67971015Y-99602481D01*
X67852481Y-99721015D01*
X67713100Y-99814147D01*
X67558228Y-99878297D01*
X67393816Y-99911000D01*
X67226184Y-99911000D01*
X67061772Y-99878297D01*
X66906900Y-99814147D01*
X66767519Y-99721015D01*
X66648985Y-99602481D01*
X66555853Y-99463100D01*
X66491703Y-99308228D01*
X66459000Y-99143816D01*
X66459000Y-98976184D01*
X66491703Y-98811772D01*
X66555853Y-98656900D01*
X66648985Y-98517519D01*
X66767519Y-98398985D01*
X66906900Y-98305853D01*
X67061772Y-98241703D01*
X67226184Y-98209000D01*
X67393816Y-98209000D01*
X67558228Y-98241703D01*
X67558228Y-98241703D01*
G37*
G36*
X70098228Y-98241703D02*
X70253100Y-98305853D01*
X70392481Y-98398985D01*
X70511015Y-98517519D01*
X70604147Y-98656900D01*
X70668297Y-98811772D01*
X70701000Y-98976184D01*
X70701000Y-99143816D01*
X70668297Y-99308228D01*
X70604147Y-99463100D01*
X70511015Y-99602481D01*
X70392481Y-99721015D01*
X70253100Y-99814147D01*
X70098228Y-99878297D01*
X69933816Y-99911000D01*
X69766184Y-99911000D01*
X69601772Y-99878297D01*
X69446900Y-99814147D01*
X69307519Y-99721015D01*
X69188985Y-99602481D01*
X69095853Y-99463100D01*
X69031703Y-99308228D01*
X68999000Y-99143816D01*
X68999000Y-98976184D01*
X69031703Y-98811772D01*
X69095853Y-98656900D01*
X69188985Y-98517519D01*
X69307519Y-98398985D01*
X69446900Y-98305853D01*
X69601772Y-98241703D01*
X69766184Y-98209000D01*
X69933816Y-98209000D01*
X70098228Y-98241703D01*
X70098228Y-98241703D01*
G37*
G36*
X62478228Y-98241703D02*
X62633100Y-98305853D01*
X62772481Y-98398985D01*
X62891015Y-98517519D01*
X62984147Y-98656900D01*
X63048297Y-98811772D01*
X63081000Y-98976184D01*
X63081000Y-99143816D01*
X63048297Y-99308228D01*
X62984147Y-99463100D01*
X62891015Y-99602481D01*
X62772481Y-99721015D01*
X62633100Y-99814147D01*
X62478228Y-99878297D01*
X62313816Y-99911000D01*
X62146184Y-99911000D01*
X61981772Y-99878297D01*
X61826900Y-99814147D01*
X61687519Y-99721015D01*
X61568985Y-99602481D01*
X61475853Y-99463100D01*
X61411703Y-99308228D01*
X61379000Y-99143816D01*
X61379000Y-98976184D01*
X61411703Y-98811772D01*
X61475853Y-98656900D01*
X61568985Y-98517519D01*
X61687519Y-98398985D01*
X61826900Y-98305853D01*
X61981772Y-98241703D01*
X62146184Y-98209000D01*
X62313816Y-98209000D01*
X62478228Y-98241703D01*
X62478228Y-98241703D01*
G37*
G36*
X72638228Y-98241703D02*
X72793100Y-98305853D01*
X72932481Y-98398985D01*
X73051015Y-98517519D01*
X73144147Y-98656900D01*
X73208297Y-98811772D01*
X73241000Y-98976184D01*
X73241000Y-99143816D01*
X73208297Y-99308228D01*
X73144147Y-99463100D01*
X73051015Y-99602481D01*
X72932481Y-99721015D01*
X72793100Y-99814147D01*
X72638228Y-99878297D01*
X72473816Y-99911000D01*
X72306184Y-99911000D01*
X72141772Y-99878297D01*
X71986900Y-99814147D01*
X71847519Y-99721015D01*
X71728985Y-99602481D01*
X71635853Y-99463100D01*
X71571703Y-99308228D01*
X71539000Y-99143816D01*
X71539000Y-98976184D01*
X71571703Y-98811772D01*
X71635853Y-98656900D01*
X71728985Y-98517519D01*
X71847519Y-98398985D01*
X71986900Y-98305853D01*
X72141772Y-98241703D01*
X72306184Y-98209000D01*
X72473816Y-98209000D01*
X72638228Y-98241703D01*
X72638228Y-98241703D01*
G37*
G36*
X140601000Y-97421000D02*
X138799000Y-97421000D01*
X138799000Y-95619000D01*
X140601000Y-95619000D01*
X140601000Y-97421000D01*
X140601000Y-97421000D01*
G37*
G36*
X90253364Y-94366583D02*
X90319548Y-94373101D01*
X90432774Y-94407448D01*
X90489388Y-94424621D01*
X90598585Y-94482989D01*
X90645912Y-94508286D01*
X90681650Y-94537616D01*
X90783107Y-94620878D01*
X90866369Y-94722335D01*
X90895699Y-94758073D01*
X90895700Y-94758075D01*
X90979364Y-94914597D01*
X90979364Y-94914598D01*
X91030884Y-95084437D01*
X91048280Y-95261064D01*
X91030884Y-95437691D01*
X90996537Y-95550917D01*
X90979364Y-95607531D01*
X90905269Y-95746151D01*
X90895699Y-95764055D01*
X90866369Y-95799793D01*
X90783107Y-95901250D01*
X90681650Y-95984512D01*
X90645912Y-96013842D01*
X90645910Y-96013843D01*
X90489388Y-96097507D01*
X90432774Y-96114680D01*
X90319548Y-96149027D01*
X90253363Y-96155546D01*
X90187181Y-96162064D01*
X90098661Y-96162064D01*
X90032479Y-96155546D01*
X89966294Y-96149027D01*
X89853068Y-96114680D01*
X89796454Y-96097507D01*
X89639932Y-96013843D01*
X89639930Y-96013842D01*
X89604192Y-95984512D01*
X89502735Y-95901250D01*
X89419473Y-95799793D01*
X89390143Y-95764055D01*
X89380573Y-95746151D01*
X89306478Y-95607531D01*
X89289305Y-95550917D01*
X89254958Y-95437691D01*
X89237562Y-95261064D01*
X89254958Y-95084437D01*
X89306478Y-94914598D01*
X89306478Y-94914597D01*
X89390142Y-94758075D01*
X89390143Y-94758073D01*
X89419473Y-94722335D01*
X89502735Y-94620878D01*
X89604192Y-94537616D01*
X89639930Y-94508286D01*
X89687257Y-94482989D01*
X89796454Y-94424621D01*
X89853068Y-94407448D01*
X89966294Y-94373101D01*
X90032478Y-94366583D01*
X90098661Y-94360064D01*
X90187181Y-94360064D01*
X90253364Y-94366583D01*
X90253364Y-94366583D01*
G37*
G36*
X87713364Y-94366583D02*
X87779548Y-94373101D01*
X87892774Y-94407448D01*
X87949388Y-94424621D01*
X88058585Y-94482989D01*
X88105912Y-94508286D01*
X88141650Y-94537616D01*
X88243107Y-94620878D01*
X88326369Y-94722335D01*
X88355699Y-94758073D01*
X88355700Y-94758075D01*
X88439364Y-94914597D01*
X88439364Y-94914598D01*
X88490884Y-95084437D01*
X88508280Y-95261064D01*
X88490884Y-95437691D01*
X88456537Y-95550917D01*
X88439364Y-95607531D01*
X88365269Y-95746151D01*
X88355699Y-95764055D01*
X88326369Y-95799793D01*
X88243107Y-95901250D01*
X88141650Y-95984512D01*
X88105912Y-96013842D01*
X88105910Y-96013843D01*
X87949388Y-96097507D01*
X87892774Y-96114680D01*
X87779548Y-96149027D01*
X87713363Y-96155546D01*
X87647181Y-96162064D01*
X87558661Y-96162064D01*
X87492479Y-96155546D01*
X87426294Y-96149027D01*
X87313068Y-96114680D01*
X87256454Y-96097507D01*
X87099932Y-96013843D01*
X87099930Y-96013842D01*
X87064192Y-95984512D01*
X86962735Y-95901250D01*
X86879473Y-95799793D01*
X86850143Y-95764055D01*
X86840573Y-95746151D01*
X86766478Y-95607531D01*
X86749305Y-95550917D01*
X86714958Y-95437691D01*
X86697562Y-95261064D01*
X86714958Y-95084437D01*
X86766478Y-94914598D01*
X86766478Y-94914597D01*
X86850142Y-94758075D01*
X86850143Y-94758073D01*
X86879473Y-94722335D01*
X86962735Y-94620878D01*
X87064192Y-94537616D01*
X87099930Y-94508286D01*
X87147257Y-94482989D01*
X87256454Y-94424621D01*
X87313068Y-94407448D01*
X87426294Y-94373101D01*
X87492478Y-94366583D01*
X87558661Y-94360064D01*
X87647181Y-94360064D01*
X87713364Y-94366583D01*
X87713364Y-94366583D01*
G37*
G36*
X92793364Y-94366583D02*
X92859548Y-94373101D01*
X92972774Y-94407448D01*
X93029388Y-94424621D01*
X93138585Y-94482989D01*
X93185912Y-94508286D01*
X93221650Y-94537616D01*
X93323107Y-94620878D01*
X93406369Y-94722335D01*
X93435699Y-94758073D01*
X93435700Y-94758075D01*
X93519364Y-94914597D01*
X93519364Y-94914598D01*
X93570884Y-95084437D01*
X93588280Y-95261064D01*
X93570884Y-95437691D01*
X93536537Y-95550917D01*
X93519364Y-95607531D01*
X93445269Y-95746151D01*
X93435699Y-95764055D01*
X93406369Y-95799793D01*
X93323107Y-95901250D01*
X93221650Y-95984512D01*
X93185912Y-96013842D01*
X93185910Y-96013843D01*
X93029388Y-96097507D01*
X92972774Y-96114680D01*
X92859548Y-96149027D01*
X92793363Y-96155546D01*
X92727181Y-96162064D01*
X92638661Y-96162064D01*
X92572479Y-96155546D01*
X92506294Y-96149027D01*
X92393068Y-96114680D01*
X92336454Y-96097507D01*
X92179932Y-96013843D01*
X92179930Y-96013842D01*
X92144192Y-95984512D01*
X92042735Y-95901250D01*
X91959473Y-95799793D01*
X91930143Y-95764055D01*
X91920573Y-95746151D01*
X91846478Y-95607531D01*
X91829305Y-95550917D01*
X91794958Y-95437691D01*
X91777562Y-95261064D01*
X91794958Y-95084437D01*
X91846478Y-94914598D01*
X91846478Y-94914597D01*
X91930142Y-94758075D01*
X91930143Y-94758073D01*
X91959473Y-94722335D01*
X92042735Y-94620878D01*
X92144192Y-94537616D01*
X92179930Y-94508286D01*
X92227257Y-94482989D01*
X92336454Y-94424621D01*
X92393068Y-94407448D01*
X92506294Y-94373101D01*
X92572478Y-94366583D01*
X92638661Y-94360064D01*
X92727181Y-94360064D01*
X92793364Y-94366583D01*
X92793364Y-94366583D01*
G37*
G36*
X96123921Y-96162064D02*
X94321921Y-96162064D01*
X94321921Y-94360064D01*
X96123921Y-94360064D01*
X96123921Y-96162064D01*
X96123921Y-96162064D01*
G37*
G36*
X139810443Y-93085519D02*
X139876627Y-93092037D01*
X139989853Y-93126384D01*
X140046467Y-93143557D01*
X140185087Y-93217652D01*
X140202991Y-93227222D01*
X140238729Y-93256552D01*
X140340186Y-93339814D01*
X140423448Y-93441271D01*
X140452778Y-93477009D01*
X140452779Y-93477011D01*
X140536443Y-93633533D01*
X140536443Y-93633534D01*
X140587963Y-93803373D01*
X140605359Y-93980000D01*
X140587963Y-94156627D01*
X140553616Y-94269853D01*
X140536443Y-94326467D01*
X140511516Y-94373101D01*
X140452778Y-94482991D01*
X140432019Y-94508286D01*
X140340186Y-94620186D01*
X140238729Y-94703448D01*
X140202991Y-94732778D01*
X140202989Y-94732779D01*
X140046467Y-94816443D01*
X139989853Y-94833616D01*
X139876627Y-94867963D01*
X139810443Y-94874481D01*
X139744260Y-94881000D01*
X139655740Y-94881000D01*
X139589557Y-94874481D01*
X139523373Y-94867963D01*
X139410147Y-94833616D01*
X139353533Y-94816443D01*
X139197011Y-94732779D01*
X139197009Y-94732778D01*
X139161271Y-94703448D01*
X139059814Y-94620186D01*
X138967981Y-94508286D01*
X138947222Y-94482991D01*
X138888484Y-94373101D01*
X138863557Y-94326467D01*
X138846384Y-94269853D01*
X138812037Y-94156627D01*
X138794641Y-93980000D01*
X138812037Y-93803373D01*
X138863557Y-93633534D01*
X138863557Y-93633533D01*
X138947221Y-93477011D01*
X138947222Y-93477009D01*
X138976552Y-93441271D01*
X139059814Y-93339814D01*
X139161271Y-93256552D01*
X139197009Y-93227222D01*
X139214913Y-93217652D01*
X139353533Y-93143557D01*
X139410147Y-93126384D01*
X139523373Y-93092037D01*
X139589557Y-93085519D01*
X139655740Y-93079000D01*
X139744260Y-93079000D01*
X139810443Y-93085519D01*
X139810443Y-93085519D01*
G37*
G36*
X92820443Y-90545519D02*
X92886627Y-90552037D01*
X92999853Y-90586384D01*
X93056467Y-90603557D01*
X93195087Y-90677652D01*
X93212991Y-90687222D01*
X93248729Y-90716552D01*
X93350186Y-90799814D01*
X93433448Y-90901271D01*
X93462778Y-90937009D01*
X93462779Y-90937011D01*
X93546443Y-91093533D01*
X93546443Y-91093534D01*
X93597963Y-91263373D01*
X93615359Y-91440000D01*
X93597963Y-91616627D01*
X93563616Y-91729853D01*
X93546443Y-91786467D01*
X93472348Y-91925087D01*
X93462778Y-91942991D01*
X93433448Y-91978729D01*
X93350186Y-92080186D01*
X93248729Y-92163448D01*
X93212991Y-92192778D01*
X93212989Y-92192779D01*
X93056467Y-92276443D01*
X92999853Y-92293616D01*
X92886627Y-92327963D01*
X92820443Y-92334481D01*
X92754260Y-92341000D01*
X92665740Y-92341000D01*
X92599557Y-92334481D01*
X92533373Y-92327963D01*
X92420147Y-92293616D01*
X92363533Y-92276443D01*
X92207011Y-92192779D01*
X92207009Y-92192778D01*
X92171271Y-92163448D01*
X92069814Y-92080186D01*
X91986552Y-91978729D01*
X91957222Y-91942991D01*
X91947652Y-91925087D01*
X91873557Y-91786467D01*
X91856384Y-91729853D01*
X91822037Y-91616627D01*
X91804641Y-91440000D01*
X91822037Y-91263373D01*
X91873557Y-91093534D01*
X91873557Y-91093533D01*
X91957221Y-90937011D01*
X91957222Y-90937009D01*
X91986552Y-90901271D01*
X92069814Y-90799814D01*
X92171271Y-90716552D01*
X92207009Y-90687222D01*
X92224913Y-90677652D01*
X92363533Y-90603557D01*
X92420147Y-90586384D01*
X92533373Y-90552037D01*
X92599557Y-90545519D01*
X92665740Y-90539000D01*
X92754260Y-90539000D01*
X92820443Y-90545519D01*
X92820443Y-90545519D01*
G37*
G36*
X95360443Y-90545519D02*
X95426627Y-90552037D01*
X95539853Y-90586384D01*
X95596467Y-90603557D01*
X95735087Y-90677652D01*
X95752991Y-90687222D01*
X95788729Y-90716552D01*
X95890186Y-90799814D01*
X95973448Y-90901271D01*
X96002778Y-90937009D01*
X96002779Y-90937011D01*
X96086443Y-91093533D01*
X96086443Y-91093534D01*
X96137963Y-91263373D01*
X96155359Y-91440000D01*
X96137963Y-91616627D01*
X96103616Y-91729853D01*
X96086443Y-91786467D01*
X96012348Y-91925087D01*
X96002778Y-91942991D01*
X95973448Y-91978729D01*
X95890186Y-92080186D01*
X95788729Y-92163448D01*
X95752991Y-92192778D01*
X95752989Y-92192779D01*
X95596467Y-92276443D01*
X95539853Y-92293616D01*
X95426627Y-92327963D01*
X95360443Y-92334481D01*
X95294260Y-92341000D01*
X95205740Y-92341000D01*
X95139557Y-92334481D01*
X95073373Y-92327963D01*
X94960147Y-92293616D01*
X94903533Y-92276443D01*
X94747011Y-92192779D01*
X94747009Y-92192778D01*
X94711271Y-92163448D01*
X94609814Y-92080186D01*
X94526552Y-91978729D01*
X94497222Y-91942991D01*
X94487652Y-91925087D01*
X94413557Y-91786467D01*
X94396384Y-91729853D01*
X94362037Y-91616627D01*
X94344641Y-91440000D01*
X94362037Y-91263373D01*
X94413557Y-91093534D01*
X94413557Y-91093533D01*
X94497221Y-90937011D01*
X94497222Y-90937009D01*
X94526552Y-90901271D01*
X94609814Y-90799814D01*
X94711271Y-90716552D01*
X94747009Y-90687222D01*
X94764913Y-90677652D01*
X94903533Y-90603557D01*
X94960147Y-90586384D01*
X95073373Y-90552037D01*
X95139557Y-90545519D01*
X95205740Y-90539000D01*
X95294260Y-90539000D01*
X95360443Y-90545519D01*
X95360443Y-90545519D01*
G37*
G36*
X90280443Y-90545519D02*
X90346627Y-90552037D01*
X90459853Y-90586384D01*
X90516467Y-90603557D01*
X90655087Y-90677652D01*
X90672991Y-90687222D01*
X90708729Y-90716552D01*
X90810186Y-90799814D01*
X90893448Y-90901271D01*
X90922778Y-90937009D01*
X90922779Y-90937011D01*
X91006443Y-91093533D01*
X91006443Y-91093534D01*
X91057963Y-91263373D01*
X91075359Y-91440000D01*
X91057963Y-91616627D01*
X91023616Y-91729853D01*
X91006443Y-91786467D01*
X90932348Y-91925087D01*
X90922778Y-91942991D01*
X90893448Y-91978729D01*
X90810186Y-92080186D01*
X90708729Y-92163448D01*
X90672991Y-92192778D01*
X90672989Y-92192779D01*
X90516467Y-92276443D01*
X90459853Y-92293616D01*
X90346627Y-92327963D01*
X90280443Y-92334481D01*
X90214260Y-92341000D01*
X90125740Y-92341000D01*
X90059557Y-92334481D01*
X89993373Y-92327963D01*
X89880147Y-92293616D01*
X89823533Y-92276443D01*
X89667011Y-92192779D01*
X89667009Y-92192778D01*
X89631271Y-92163448D01*
X89529814Y-92080186D01*
X89446552Y-91978729D01*
X89417222Y-91942991D01*
X89407652Y-91925087D01*
X89333557Y-91786467D01*
X89316384Y-91729853D01*
X89282037Y-91616627D01*
X89264641Y-91440000D01*
X89282037Y-91263373D01*
X89333557Y-91093534D01*
X89333557Y-91093533D01*
X89417221Y-90937011D01*
X89417222Y-90937009D01*
X89446552Y-90901271D01*
X89529814Y-90799814D01*
X89631271Y-90716552D01*
X89667009Y-90687222D01*
X89684913Y-90677652D01*
X89823533Y-90603557D01*
X89880147Y-90586384D01*
X89993373Y-90552037D01*
X90059557Y-90545519D01*
X90125740Y-90539000D01*
X90214260Y-90539000D01*
X90280443Y-90545519D01*
X90280443Y-90545519D01*
G37*
G36*
X87740443Y-90545519D02*
X87806627Y-90552037D01*
X87919853Y-90586384D01*
X87976467Y-90603557D01*
X88115087Y-90677652D01*
X88132991Y-90687222D01*
X88168729Y-90716552D01*
X88270186Y-90799814D01*
X88353448Y-90901271D01*
X88382778Y-90937009D01*
X88382779Y-90937011D01*
X88466443Y-91093533D01*
X88466443Y-91093534D01*
X88517963Y-91263373D01*
X88535359Y-91440000D01*
X88517963Y-91616627D01*
X88483616Y-91729853D01*
X88466443Y-91786467D01*
X88392348Y-91925087D01*
X88382778Y-91942991D01*
X88353448Y-91978729D01*
X88270186Y-92080186D01*
X88168729Y-92163448D01*
X88132991Y-92192778D01*
X88132989Y-92192779D01*
X87976467Y-92276443D01*
X87919853Y-92293616D01*
X87806627Y-92327963D01*
X87740443Y-92334481D01*
X87674260Y-92341000D01*
X87585740Y-92341000D01*
X87519557Y-92334481D01*
X87453373Y-92327963D01*
X87340147Y-92293616D01*
X87283533Y-92276443D01*
X87127011Y-92192779D01*
X87127009Y-92192778D01*
X87091271Y-92163448D01*
X86989814Y-92080186D01*
X86906552Y-91978729D01*
X86877222Y-91942991D01*
X86867652Y-91925087D01*
X86793557Y-91786467D01*
X86776384Y-91729853D01*
X86742037Y-91616627D01*
X86724641Y-91440000D01*
X86742037Y-91263373D01*
X86793557Y-91093534D01*
X86793557Y-91093533D01*
X86877221Y-90937011D01*
X86877222Y-90937009D01*
X86906552Y-90901271D01*
X86989814Y-90799814D01*
X87091271Y-90716552D01*
X87127009Y-90687222D01*
X87144913Y-90677652D01*
X87283533Y-90603557D01*
X87340147Y-90586384D01*
X87453373Y-90552037D01*
X87519557Y-90545519D01*
X87585740Y-90539000D01*
X87674260Y-90539000D01*
X87740443Y-90545519D01*
X87740443Y-90545519D01*
G37*
G36*
X85991000Y-92341000D02*
X84189000Y-92341000D01*
X84189000Y-90539000D01*
X85991000Y-90539000D01*
X85991000Y-92341000D01*
X85991000Y-92341000D01*
G37*
G36*
X123300443Y-90545519D02*
X123366627Y-90552037D01*
X123479853Y-90586384D01*
X123536467Y-90603557D01*
X123675087Y-90677652D01*
X123692991Y-90687222D01*
X123728729Y-90716552D01*
X123830186Y-90799814D01*
X123913448Y-90901271D01*
X123942778Y-90937009D01*
X123942779Y-90937011D01*
X124026443Y-91093533D01*
X124026443Y-91093534D01*
X124077963Y-91263373D01*
X124095359Y-91440000D01*
X124077963Y-91616627D01*
X124043616Y-91729853D01*
X124026443Y-91786467D01*
X123952348Y-91925087D01*
X123942778Y-91942991D01*
X123913448Y-91978729D01*
X123830186Y-92080186D01*
X123728729Y-92163448D01*
X123692991Y-92192778D01*
X123692989Y-92192779D01*
X123536467Y-92276443D01*
X123479853Y-92293616D01*
X123366627Y-92327963D01*
X123300443Y-92334481D01*
X123234260Y-92341000D01*
X123145740Y-92341000D01*
X123079557Y-92334481D01*
X123013373Y-92327963D01*
X122900147Y-92293616D01*
X122843533Y-92276443D01*
X122687011Y-92192779D01*
X122687009Y-92192778D01*
X122651271Y-92163448D01*
X122549814Y-92080186D01*
X122466552Y-91978729D01*
X122437222Y-91942991D01*
X122427652Y-91925087D01*
X122353557Y-91786467D01*
X122336384Y-91729853D01*
X122302037Y-91616627D01*
X122284641Y-91440000D01*
X122302037Y-91263373D01*
X122353557Y-91093534D01*
X122353557Y-91093533D01*
X122437221Y-90937011D01*
X122437222Y-90937009D01*
X122466552Y-90901271D01*
X122549814Y-90799814D01*
X122651271Y-90716552D01*
X122687009Y-90687222D01*
X122704913Y-90677652D01*
X122843533Y-90603557D01*
X122900147Y-90586384D01*
X123013373Y-90552037D01*
X123079557Y-90545519D01*
X123145740Y-90539000D01*
X123234260Y-90539000D01*
X123300443Y-90545519D01*
X123300443Y-90545519D01*
G37*
G36*
X121551000Y-92341000D02*
X119749000Y-92341000D01*
X119749000Y-90539000D01*
X121551000Y-90539000D01*
X121551000Y-92341000D01*
X121551000Y-92341000D01*
G37*
G36*
X128380443Y-90545519D02*
X128446627Y-90552037D01*
X128559853Y-90586384D01*
X128616467Y-90603557D01*
X128755087Y-90677652D01*
X128772991Y-90687222D01*
X128808729Y-90716552D01*
X128910186Y-90799814D01*
X128993448Y-90901271D01*
X129022778Y-90937009D01*
X129022779Y-90937011D01*
X129106443Y-91093533D01*
X129106443Y-91093534D01*
X129157963Y-91263373D01*
X129175359Y-91440000D01*
X129157963Y-91616627D01*
X129123616Y-91729853D01*
X129106443Y-91786467D01*
X129032348Y-91925087D01*
X129022778Y-91942991D01*
X128993448Y-91978729D01*
X128910186Y-92080186D01*
X128808729Y-92163448D01*
X128772991Y-92192778D01*
X128772989Y-92192779D01*
X128616467Y-92276443D01*
X128559853Y-92293616D01*
X128446627Y-92327963D01*
X128380443Y-92334481D01*
X128314260Y-92341000D01*
X128225740Y-92341000D01*
X128159557Y-92334481D01*
X128093373Y-92327963D01*
X127980147Y-92293616D01*
X127923533Y-92276443D01*
X127767011Y-92192779D01*
X127767009Y-92192778D01*
X127731271Y-92163448D01*
X127629814Y-92080186D01*
X127546552Y-91978729D01*
X127517222Y-91942991D01*
X127507652Y-91925087D01*
X127433557Y-91786467D01*
X127416384Y-91729853D01*
X127382037Y-91616627D01*
X127364641Y-91440000D01*
X127382037Y-91263373D01*
X127433557Y-91093534D01*
X127433557Y-91093533D01*
X127517221Y-90937011D01*
X127517222Y-90937009D01*
X127546552Y-90901271D01*
X127629814Y-90799814D01*
X127731271Y-90716552D01*
X127767009Y-90687222D01*
X127784913Y-90677652D01*
X127923533Y-90603557D01*
X127980147Y-90586384D01*
X128093373Y-90552037D01*
X128159557Y-90545519D01*
X128225740Y-90539000D01*
X128314260Y-90539000D01*
X128380443Y-90545519D01*
X128380443Y-90545519D01*
G37*
G36*
X52180443Y-90545519D02*
X52246627Y-90552037D01*
X52359853Y-90586384D01*
X52416467Y-90603557D01*
X52555087Y-90677652D01*
X52572991Y-90687222D01*
X52608729Y-90716552D01*
X52710186Y-90799814D01*
X52793448Y-90901271D01*
X52822778Y-90937009D01*
X52822779Y-90937011D01*
X52906443Y-91093533D01*
X52906443Y-91093534D01*
X52957963Y-91263373D01*
X52975359Y-91440000D01*
X52957963Y-91616627D01*
X52923616Y-91729853D01*
X52906443Y-91786467D01*
X52832348Y-91925087D01*
X52822778Y-91942991D01*
X52793448Y-91978729D01*
X52710186Y-92080186D01*
X52608729Y-92163448D01*
X52572991Y-92192778D01*
X52572989Y-92192779D01*
X52416467Y-92276443D01*
X52359853Y-92293616D01*
X52246627Y-92327963D01*
X52180443Y-92334481D01*
X52114260Y-92341000D01*
X52025740Y-92341000D01*
X51959557Y-92334481D01*
X51893373Y-92327963D01*
X51780147Y-92293616D01*
X51723533Y-92276443D01*
X51567011Y-92192779D01*
X51567009Y-92192778D01*
X51531271Y-92163448D01*
X51429814Y-92080186D01*
X51346552Y-91978729D01*
X51317222Y-91942991D01*
X51307652Y-91925087D01*
X51233557Y-91786467D01*
X51216384Y-91729853D01*
X51182037Y-91616627D01*
X51164641Y-91440000D01*
X51182037Y-91263373D01*
X51233557Y-91093534D01*
X51233557Y-91093533D01*
X51317221Y-90937011D01*
X51317222Y-90937009D01*
X51346552Y-90901271D01*
X51429814Y-90799814D01*
X51531271Y-90716552D01*
X51567009Y-90687222D01*
X51584913Y-90677652D01*
X51723533Y-90603557D01*
X51780147Y-90586384D01*
X51893373Y-90552037D01*
X51959557Y-90545519D01*
X52025740Y-90539000D01*
X52114260Y-90539000D01*
X52180443Y-90545519D01*
X52180443Y-90545519D01*
G37*
G36*
X54720443Y-90545519D02*
X54786627Y-90552037D01*
X54899853Y-90586384D01*
X54956467Y-90603557D01*
X55095087Y-90677652D01*
X55112991Y-90687222D01*
X55148729Y-90716552D01*
X55250186Y-90799814D01*
X55333448Y-90901271D01*
X55362778Y-90937009D01*
X55362779Y-90937011D01*
X55446443Y-91093533D01*
X55446443Y-91093534D01*
X55497963Y-91263373D01*
X55515359Y-91440000D01*
X55497963Y-91616627D01*
X55463616Y-91729853D01*
X55446443Y-91786467D01*
X55372348Y-91925087D01*
X55362778Y-91942991D01*
X55333448Y-91978729D01*
X55250186Y-92080186D01*
X55148729Y-92163448D01*
X55112991Y-92192778D01*
X55112989Y-92192779D01*
X54956467Y-92276443D01*
X54899853Y-92293616D01*
X54786627Y-92327963D01*
X54720443Y-92334481D01*
X54654260Y-92341000D01*
X54565740Y-92341000D01*
X54499557Y-92334481D01*
X54433373Y-92327963D01*
X54320147Y-92293616D01*
X54263533Y-92276443D01*
X54107011Y-92192779D01*
X54107009Y-92192778D01*
X54071271Y-92163448D01*
X53969814Y-92080186D01*
X53886552Y-91978729D01*
X53857222Y-91942991D01*
X53847652Y-91925087D01*
X53773557Y-91786467D01*
X53756384Y-91729853D01*
X53722037Y-91616627D01*
X53704641Y-91440000D01*
X53722037Y-91263373D01*
X53773557Y-91093534D01*
X53773557Y-91093533D01*
X53857221Y-90937011D01*
X53857222Y-90937009D01*
X53886552Y-90901271D01*
X53969814Y-90799814D01*
X54071271Y-90716552D01*
X54107009Y-90687222D01*
X54124913Y-90677652D01*
X54263533Y-90603557D01*
X54320147Y-90586384D01*
X54433373Y-90552037D01*
X54499557Y-90545519D01*
X54565740Y-90539000D01*
X54654260Y-90539000D01*
X54720443Y-90545519D01*
X54720443Y-90545519D01*
G37*
G36*
X57260443Y-90545519D02*
X57326627Y-90552037D01*
X57439853Y-90586384D01*
X57496467Y-90603557D01*
X57635087Y-90677652D01*
X57652991Y-90687222D01*
X57688729Y-90716552D01*
X57790186Y-90799814D01*
X57873448Y-90901271D01*
X57902778Y-90937009D01*
X57902779Y-90937011D01*
X57986443Y-91093533D01*
X57986443Y-91093534D01*
X58037963Y-91263373D01*
X58055359Y-91440000D01*
X58037963Y-91616627D01*
X58003616Y-91729853D01*
X57986443Y-91786467D01*
X57912348Y-91925087D01*
X57902778Y-91942991D01*
X57873448Y-91978729D01*
X57790186Y-92080186D01*
X57688729Y-92163448D01*
X57652991Y-92192778D01*
X57652989Y-92192779D01*
X57496467Y-92276443D01*
X57439853Y-92293616D01*
X57326627Y-92327963D01*
X57260443Y-92334481D01*
X57194260Y-92341000D01*
X57105740Y-92341000D01*
X57039557Y-92334481D01*
X56973373Y-92327963D01*
X56860147Y-92293616D01*
X56803533Y-92276443D01*
X56647011Y-92192779D01*
X56647009Y-92192778D01*
X56611271Y-92163448D01*
X56509814Y-92080186D01*
X56426552Y-91978729D01*
X56397222Y-91942991D01*
X56387652Y-91925087D01*
X56313557Y-91786467D01*
X56296384Y-91729853D01*
X56262037Y-91616627D01*
X56244641Y-91440000D01*
X56262037Y-91263373D01*
X56313557Y-91093534D01*
X56313557Y-91093533D01*
X56397221Y-90937011D01*
X56397222Y-90937009D01*
X56426552Y-90901271D01*
X56509814Y-90799814D01*
X56611271Y-90716552D01*
X56647009Y-90687222D01*
X56664913Y-90677652D01*
X56803533Y-90603557D01*
X56860147Y-90586384D01*
X56973373Y-90552037D01*
X57039557Y-90545519D01*
X57105740Y-90539000D01*
X57194260Y-90539000D01*
X57260443Y-90545519D01*
X57260443Y-90545519D01*
G37*
G36*
X59800443Y-90545519D02*
X59866627Y-90552037D01*
X59979853Y-90586384D01*
X60036467Y-90603557D01*
X60175087Y-90677652D01*
X60192991Y-90687222D01*
X60228729Y-90716552D01*
X60330186Y-90799814D01*
X60413448Y-90901271D01*
X60442778Y-90937009D01*
X60442779Y-90937011D01*
X60526443Y-91093533D01*
X60526443Y-91093534D01*
X60577963Y-91263373D01*
X60595359Y-91440000D01*
X60577963Y-91616627D01*
X60543616Y-91729853D01*
X60526443Y-91786467D01*
X60452348Y-91925087D01*
X60442778Y-91942991D01*
X60413448Y-91978729D01*
X60330186Y-92080186D01*
X60228729Y-92163448D01*
X60192991Y-92192778D01*
X60192989Y-92192779D01*
X60036467Y-92276443D01*
X59979853Y-92293616D01*
X59866627Y-92327963D01*
X59800443Y-92334481D01*
X59734260Y-92341000D01*
X59645740Y-92341000D01*
X59579557Y-92334481D01*
X59513373Y-92327963D01*
X59400147Y-92293616D01*
X59343533Y-92276443D01*
X59187011Y-92192779D01*
X59187009Y-92192778D01*
X59151271Y-92163448D01*
X59049814Y-92080186D01*
X58966552Y-91978729D01*
X58937222Y-91942991D01*
X58927652Y-91925087D01*
X58853557Y-91786467D01*
X58836384Y-91729853D01*
X58802037Y-91616627D01*
X58784641Y-91440000D01*
X58802037Y-91263373D01*
X58853557Y-91093534D01*
X58853557Y-91093533D01*
X58937221Y-90937011D01*
X58937222Y-90937009D01*
X58966552Y-90901271D01*
X59049814Y-90799814D01*
X59151271Y-90716552D01*
X59187009Y-90687222D01*
X59204913Y-90677652D01*
X59343533Y-90603557D01*
X59400147Y-90586384D01*
X59513373Y-90552037D01*
X59579557Y-90545519D01*
X59645740Y-90539000D01*
X59734260Y-90539000D01*
X59800443Y-90545519D01*
X59800443Y-90545519D01*
G37*
G36*
X125840443Y-90545519D02*
X125906627Y-90552037D01*
X126019853Y-90586384D01*
X126076467Y-90603557D01*
X126215087Y-90677652D01*
X126232991Y-90687222D01*
X126268729Y-90716552D01*
X126370186Y-90799814D01*
X126453448Y-90901271D01*
X126482778Y-90937009D01*
X126482779Y-90937011D01*
X126566443Y-91093533D01*
X126566443Y-91093534D01*
X126617963Y-91263373D01*
X126635359Y-91440000D01*
X126617963Y-91616627D01*
X126583616Y-91729853D01*
X126566443Y-91786467D01*
X126492348Y-91925087D01*
X126482778Y-91942991D01*
X126453448Y-91978729D01*
X126370186Y-92080186D01*
X126268729Y-92163448D01*
X126232991Y-92192778D01*
X126232989Y-92192779D01*
X126076467Y-92276443D01*
X126019853Y-92293616D01*
X125906627Y-92327963D01*
X125840443Y-92334481D01*
X125774260Y-92341000D01*
X125685740Y-92341000D01*
X125619557Y-92334481D01*
X125553373Y-92327963D01*
X125440147Y-92293616D01*
X125383533Y-92276443D01*
X125227011Y-92192779D01*
X125227009Y-92192778D01*
X125191271Y-92163448D01*
X125089814Y-92080186D01*
X125006552Y-91978729D01*
X124977222Y-91942991D01*
X124967652Y-91925087D01*
X124893557Y-91786467D01*
X124876384Y-91729853D01*
X124842037Y-91616627D01*
X124824641Y-91440000D01*
X124842037Y-91263373D01*
X124893557Y-91093534D01*
X124893557Y-91093533D01*
X124977221Y-90937011D01*
X124977222Y-90937009D01*
X125006552Y-90901271D01*
X125089814Y-90799814D01*
X125191271Y-90716552D01*
X125227009Y-90687222D01*
X125244913Y-90677652D01*
X125383533Y-90603557D01*
X125440147Y-90586384D01*
X125553373Y-90552037D01*
X125619557Y-90545519D01*
X125685740Y-90539000D01*
X125774260Y-90539000D01*
X125840443Y-90545519D01*
X125840443Y-90545519D01*
G37*
G36*
X130920443Y-90545519D02*
X130986627Y-90552037D01*
X131099853Y-90586384D01*
X131156467Y-90603557D01*
X131295087Y-90677652D01*
X131312991Y-90687222D01*
X131348729Y-90716552D01*
X131450186Y-90799814D01*
X131533448Y-90901271D01*
X131562778Y-90937009D01*
X131562779Y-90937011D01*
X131646443Y-91093533D01*
X131646443Y-91093534D01*
X131697963Y-91263373D01*
X131715359Y-91440000D01*
X131697963Y-91616627D01*
X131663616Y-91729853D01*
X131646443Y-91786467D01*
X131572348Y-91925087D01*
X131562778Y-91942991D01*
X131533448Y-91978729D01*
X131450186Y-92080186D01*
X131348729Y-92163448D01*
X131312991Y-92192778D01*
X131312989Y-92192779D01*
X131156467Y-92276443D01*
X131099853Y-92293616D01*
X130986627Y-92327963D01*
X130920443Y-92334481D01*
X130854260Y-92341000D01*
X130765740Y-92341000D01*
X130699557Y-92334481D01*
X130633373Y-92327963D01*
X130520147Y-92293616D01*
X130463533Y-92276443D01*
X130307011Y-92192779D01*
X130307009Y-92192778D01*
X130271271Y-92163448D01*
X130169814Y-92080186D01*
X130086552Y-91978729D01*
X130057222Y-91942991D01*
X130047652Y-91925087D01*
X129973557Y-91786467D01*
X129956384Y-91729853D01*
X129922037Y-91616627D01*
X129904641Y-91440000D01*
X129922037Y-91263373D01*
X129973557Y-91093534D01*
X129973557Y-91093533D01*
X130057221Y-90937011D01*
X130057222Y-90937009D01*
X130086552Y-90901271D01*
X130169814Y-90799814D01*
X130271271Y-90716552D01*
X130307009Y-90687222D01*
X130324913Y-90677652D01*
X130463533Y-90603557D01*
X130520147Y-90586384D01*
X130633373Y-90552037D01*
X130699557Y-90545519D01*
X130765740Y-90539000D01*
X130854260Y-90539000D01*
X130920443Y-90545519D01*
X130920443Y-90545519D01*
G37*
G36*
X139810443Y-90545519D02*
X139876627Y-90552037D01*
X139989853Y-90586384D01*
X140046467Y-90603557D01*
X140185087Y-90677652D01*
X140202991Y-90687222D01*
X140238729Y-90716552D01*
X140340186Y-90799814D01*
X140423448Y-90901271D01*
X140452778Y-90937009D01*
X140452779Y-90937011D01*
X140536443Y-91093533D01*
X140536443Y-91093534D01*
X140587963Y-91263373D01*
X140605359Y-91440000D01*
X140587963Y-91616627D01*
X140553616Y-91729853D01*
X140536443Y-91786467D01*
X140462348Y-91925087D01*
X140452778Y-91942991D01*
X140423448Y-91978729D01*
X140340186Y-92080186D01*
X140238729Y-92163448D01*
X140202991Y-92192778D01*
X140202989Y-92192779D01*
X140046467Y-92276443D01*
X139989853Y-92293616D01*
X139876627Y-92327963D01*
X139810443Y-92334481D01*
X139744260Y-92341000D01*
X139655740Y-92341000D01*
X139589557Y-92334481D01*
X139523373Y-92327963D01*
X139410147Y-92293616D01*
X139353533Y-92276443D01*
X139197011Y-92192779D01*
X139197009Y-92192778D01*
X139161271Y-92163448D01*
X139059814Y-92080186D01*
X138976552Y-91978729D01*
X138947222Y-91942991D01*
X138937652Y-91925087D01*
X138863557Y-91786467D01*
X138846384Y-91729853D01*
X138812037Y-91616627D01*
X138794641Y-91440000D01*
X138812037Y-91263373D01*
X138863557Y-91093534D01*
X138863557Y-91093533D01*
X138947221Y-90937011D01*
X138947222Y-90937009D01*
X138976552Y-90901271D01*
X139059814Y-90799814D01*
X139161271Y-90716552D01*
X139197009Y-90687222D01*
X139214913Y-90677652D01*
X139353533Y-90603557D01*
X139410147Y-90586384D01*
X139523373Y-90552037D01*
X139589557Y-90545519D01*
X139655740Y-90539000D01*
X139744260Y-90539000D01*
X139810443Y-90545519D01*
X139810443Y-90545519D01*
G37*
G36*
X50431000Y-92341000D02*
X48629000Y-92341000D01*
X48629000Y-90539000D01*
X50431000Y-90539000D01*
X50431000Y-92341000D01*
X50431000Y-92341000D01*
G37*
G36*
X139810443Y-88005519D02*
X139876627Y-88012037D01*
X139989853Y-88046384D01*
X140046467Y-88063557D01*
X140185087Y-88137652D01*
X140202991Y-88147222D01*
X140238729Y-88176552D01*
X140340186Y-88259814D01*
X140423448Y-88361271D01*
X140452778Y-88397009D01*
X140452779Y-88397011D01*
X140536443Y-88553533D01*
X140536443Y-88553534D01*
X140587963Y-88723373D01*
X140605359Y-88900000D01*
X140587963Y-89076627D01*
X140553616Y-89189853D01*
X140536443Y-89246467D01*
X140462348Y-89385087D01*
X140452778Y-89402991D01*
X140423448Y-89438729D01*
X140340186Y-89540186D01*
X140238729Y-89623448D01*
X140202991Y-89652778D01*
X140202989Y-89652779D01*
X140046467Y-89736443D01*
X139989853Y-89753616D01*
X139876627Y-89787963D01*
X139810443Y-89794481D01*
X139744260Y-89801000D01*
X139655740Y-89801000D01*
X139589557Y-89794481D01*
X139523373Y-89787963D01*
X139410147Y-89753616D01*
X139353533Y-89736443D01*
X139197011Y-89652779D01*
X139197009Y-89652778D01*
X139161271Y-89623448D01*
X139059814Y-89540186D01*
X138976552Y-89438729D01*
X138947222Y-89402991D01*
X138937652Y-89385087D01*
X138863557Y-89246467D01*
X138846384Y-89189853D01*
X138812037Y-89076627D01*
X138794641Y-88900000D01*
X138812037Y-88723373D01*
X138863557Y-88553534D01*
X138863557Y-88553533D01*
X138947221Y-88397011D01*
X138947222Y-88397009D01*
X138976552Y-88361271D01*
X139059814Y-88259814D01*
X139161271Y-88176552D01*
X139197009Y-88147222D01*
X139214913Y-88137652D01*
X139353533Y-88063557D01*
X139410147Y-88046384D01*
X139523373Y-88012037D01*
X139589557Y-88005519D01*
X139655740Y-87999000D01*
X139744260Y-87999000D01*
X139810443Y-88005519D01*
X139810443Y-88005519D01*
G37*
G36*
X139810442Y-85465518D02*
X139876627Y-85472037D01*
X139989853Y-85506384D01*
X140046467Y-85523557D01*
X140185087Y-85597652D01*
X140202991Y-85607222D01*
X140238729Y-85636552D01*
X140340186Y-85719814D01*
X140423448Y-85821271D01*
X140452778Y-85857009D01*
X140452779Y-85857011D01*
X140536443Y-86013533D01*
X140536443Y-86013534D01*
X140587963Y-86183373D01*
X140605359Y-86360000D01*
X140587963Y-86536627D01*
X140553616Y-86649853D01*
X140536443Y-86706467D01*
X140462348Y-86845087D01*
X140452778Y-86862991D01*
X140423448Y-86898729D01*
X140340186Y-87000186D01*
X140238729Y-87083448D01*
X140202991Y-87112778D01*
X140202989Y-87112779D01*
X140046467Y-87196443D01*
X139989853Y-87213616D01*
X139876627Y-87247963D01*
X139810442Y-87254482D01*
X139744260Y-87261000D01*
X139655740Y-87261000D01*
X139589558Y-87254482D01*
X139523373Y-87247963D01*
X139410147Y-87213616D01*
X139353533Y-87196443D01*
X139197011Y-87112779D01*
X139197009Y-87112778D01*
X139161271Y-87083448D01*
X139059814Y-87000186D01*
X138976552Y-86898729D01*
X138947222Y-86862991D01*
X138937652Y-86845087D01*
X138863557Y-86706467D01*
X138846384Y-86649853D01*
X138812037Y-86536627D01*
X138794641Y-86360000D01*
X138812037Y-86183373D01*
X138863557Y-86013534D01*
X138863557Y-86013533D01*
X138947221Y-85857011D01*
X138947222Y-85857009D01*
X138976552Y-85821271D01*
X139059814Y-85719814D01*
X139161271Y-85636552D01*
X139197009Y-85607222D01*
X139214913Y-85597652D01*
X139353533Y-85523557D01*
X139410147Y-85506384D01*
X139523373Y-85472037D01*
X139589558Y-85465518D01*
X139655740Y-85459000D01*
X139744260Y-85459000D01*
X139810442Y-85465518D01*
X139810442Y-85465518D01*
G37*
G36*
X139810443Y-82925519D02*
X139876627Y-82932037D01*
X139989853Y-82966384D01*
X140046467Y-82983557D01*
X140185087Y-83057652D01*
X140202991Y-83067222D01*
X140238729Y-83096552D01*
X140340186Y-83179814D01*
X140423448Y-83281271D01*
X140452778Y-83317009D01*
X140452779Y-83317011D01*
X140536443Y-83473533D01*
X140536443Y-83473534D01*
X140587963Y-83643373D01*
X140605359Y-83820000D01*
X140587963Y-83996627D01*
X140553616Y-84109853D01*
X140536443Y-84166467D01*
X140462348Y-84305087D01*
X140452778Y-84322991D01*
X140423448Y-84358729D01*
X140340186Y-84460186D01*
X140238729Y-84543448D01*
X140202991Y-84572778D01*
X140202989Y-84572779D01*
X140046467Y-84656443D01*
X139989853Y-84673616D01*
X139876627Y-84707963D01*
X139810443Y-84714481D01*
X139744260Y-84721000D01*
X139655740Y-84721000D01*
X139589557Y-84714481D01*
X139523373Y-84707963D01*
X139410147Y-84673616D01*
X139353533Y-84656443D01*
X139197011Y-84572779D01*
X139197009Y-84572778D01*
X139161271Y-84543448D01*
X139059814Y-84460186D01*
X138976552Y-84358729D01*
X138947222Y-84322991D01*
X138937652Y-84305087D01*
X138863557Y-84166467D01*
X138846384Y-84109853D01*
X138812037Y-83996627D01*
X138794641Y-83820000D01*
X138812037Y-83643373D01*
X138863557Y-83473534D01*
X138863557Y-83473533D01*
X138947221Y-83317011D01*
X138947222Y-83317009D01*
X138976552Y-83281271D01*
X139059814Y-83179814D01*
X139161271Y-83096552D01*
X139197009Y-83067222D01*
X139214913Y-83057652D01*
X139353533Y-82983557D01*
X139410147Y-82966384D01*
X139523373Y-82932037D01*
X139589557Y-82925519D01*
X139655740Y-82919000D01*
X139744260Y-82919000D01*
X139810443Y-82925519D01*
X139810443Y-82925519D01*
G37*
G36*
X138049941Y-50406248D02*
X138049943Y-50406249D01*
X138049944Y-50406249D01*
X138605190Y-50636239D01*
X138605191Y-50636240D01*
X139104902Y-50970136D01*
X139529864Y-51395098D01*
X139529866Y-51395101D01*
X139863761Y-51894810D01*
X140079838Y-52416467D01*
X140093752Y-52450059D01*
X140211000Y-53039501D01*
X140211000Y-53640499D01*
X140109330Y-54151627D01*
X140093751Y-54229944D01*
X139863761Y-54785190D01*
X139796021Y-54886570D01*
X139529864Y-55284902D01*
X139104902Y-55709864D01*
X139104899Y-55709866D01*
X138605190Y-56043761D01*
X138049944Y-56273751D01*
X138049943Y-56273751D01*
X138049941Y-56273752D01*
X137460499Y-56391000D01*
X136859501Y-56391000D01*
X136270059Y-56273752D01*
X136270057Y-56273751D01*
X136270056Y-56273751D01*
X135714810Y-56043761D01*
X135215101Y-55709866D01*
X135215098Y-55709864D01*
X134790136Y-55284902D01*
X134523979Y-54886570D01*
X134456239Y-54785190D01*
X134226249Y-54229944D01*
X134210671Y-54151627D01*
X134109000Y-53640499D01*
X134109000Y-53039501D01*
X134226248Y-52450059D01*
X134240162Y-52416467D01*
X134456239Y-51894810D01*
X134790134Y-51395101D01*
X134790136Y-51395098D01*
X135215098Y-50970136D01*
X135714809Y-50636240D01*
X135714810Y-50636239D01*
X136270056Y-50406249D01*
X136270057Y-50406249D01*
X136270059Y-50406248D01*
X136859501Y-50289000D01*
X137460499Y-50289000D01*
X138049941Y-50406248D01*
X138049941Y-50406248D01*
G37*
G36*
X44069941Y-50406248D02*
X44069943Y-50406249D01*
X44069944Y-50406249D01*
X44625190Y-50636239D01*
X44625191Y-50636240D01*
X45124902Y-50970136D01*
X45549864Y-51395098D01*
X45549866Y-51395101D01*
X45883761Y-51894810D01*
X46099838Y-52416467D01*
X46113752Y-52450059D01*
X46231000Y-53039501D01*
X46231000Y-53640499D01*
X46129330Y-54151627D01*
X46113751Y-54229944D01*
X45883761Y-54785190D01*
X45816021Y-54886570D01*
X45549864Y-55284902D01*
X45124902Y-55709864D01*
X45124899Y-55709866D01*
X44625190Y-56043761D01*
X44069944Y-56273751D01*
X44069943Y-56273751D01*
X44069941Y-56273752D01*
X43480499Y-56391000D01*
X42879501Y-56391000D01*
X42290059Y-56273752D01*
X42290057Y-56273751D01*
X42290056Y-56273751D01*
X41734810Y-56043761D01*
X41235101Y-55709866D01*
X41235098Y-55709864D01*
X40810136Y-55284902D01*
X40543979Y-54886570D01*
X40476239Y-54785190D01*
X40246249Y-54229944D01*
X40230671Y-54151627D01*
X40129000Y-53640499D01*
X40129000Y-53039501D01*
X40246248Y-52450059D01*
X40260162Y-52416467D01*
X40476239Y-51894810D01*
X40810134Y-51395101D01*
X40810136Y-51395098D01*
X41235098Y-50970136D01*
X41734809Y-50636240D01*
X41734810Y-50636239D01*
X42290056Y-50406249D01*
X42290057Y-50406249D01*
X42290059Y-50406248D01*
X42879501Y-50289000D01*
X43480499Y-50289000D01*
X44069941Y-50406248D01*
X44069941Y-50406248D01*
G37*
G36*
X83930442Y-53080518D02*
X83996627Y-53087037D01*
X84109853Y-53121384D01*
X84166467Y-53138557D01*
X84297222Y-53208448D01*
X84322991Y-53222222D01*
X84358729Y-53251552D01*
X84460186Y-53334814D01*
X84543448Y-53436271D01*
X84572778Y-53472009D01*
X84572779Y-53472011D01*
X84656443Y-53628533D01*
X84656443Y-53628534D01*
X84707963Y-53798373D01*
X84725359Y-53975000D01*
X84707963Y-54151627D01*
X84684207Y-54229941D01*
X84656443Y-54321467D01*
X84582348Y-54460087D01*
X84572778Y-54477991D01*
X84571137Y-54479990D01*
X84460186Y-54615186D01*
X84358729Y-54698448D01*
X84322991Y-54727778D01*
X84322989Y-54727779D01*
X84166467Y-54811443D01*
X84109853Y-54828616D01*
X83996627Y-54862963D01*
X83930443Y-54869481D01*
X83864260Y-54876000D01*
X83775740Y-54876000D01*
X83709557Y-54869481D01*
X83643373Y-54862963D01*
X83530147Y-54828616D01*
X83473533Y-54811443D01*
X83317011Y-54727779D01*
X83317009Y-54727778D01*
X83281271Y-54698448D01*
X83179814Y-54615186D01*
X83068863Y-54479990D01*
X83067222Y-54477991D01*
X83057652Y-54460087D01*
X82983557Y-54321467D01*
X82955793Y-54229941D01*
X82932037Y-54151627D01*
X82914641Y-53975000D01*
X82932037Y-53798373D01*
X82983557Y-53628534D01*
X82983557Y-53628533D01*
X83067221Y-53472011D01*
X83067222Y-53472009D01*
X83096552Y-53436271D01*
X83179814Y-53334814D01*
X83281271Y-53251552D01*
X83317009Y-53222222D01*
X83342778Y-53208448D01*
X83473533Y-53138557D01*
X83530147Y-53121384D01*
X83643373Y-53087037D01*
X83709558Y-53080518D01*
X83775740Y-53074000D01*
X83864260Y-53074000D01*
X83930442Y-53080518D01*
X83930442Y-53080518D01*
G37*
G36*
X59321000Y-54876000D02*
X57519000Y-54876000D01*
X57519000Y-53074000D01*
X59321000Y-53074000D01*
X59321000Y-54876000D01*
X59321000Y-54876000D01*
G37*
G36*
X82181000Y-54876000D02*
X80379000Y-54876000D01*
X80379000Y-53074000D01*
X82181000Y-53074000D01*
X82181000Y-54876000D01*
X82181000Y-54876000D01*
G37*
G36*
X91550442Y-53080518D02*
X91616627Y-53087037D01*
X91729853Y-53121384D01*
X91786467Y-53138557D01*
X91917222Y-53208448D01*
X91942991Y-53222222D01*
X91978729Y-53251552D01*
X92080186Y-53334814D01*
X92163448Y-53436271D01*
X92192778Y-53472009D01*
X92192779Y-53472011D01*
X92276443Y-53628533D01*
X92276443Y-53628534D01*
X92327963Y-53798373D01*
X92345359Y-53975000D01*
X92327963Y-54151627D01*
X92304207Y-54229941D01*
X92276443Y-54321467D01*
X92202348Y-54460087D01*
X92192778Y-54477991D01*
X92191137Y-54479990D01*
X92080186Y-54615186D01*
X91978729Y-54698448D01*
X91942991Y-54727778D01*
X91942989Y-54727779D01*
X91786467Y-54811443D01*
X91729853Y-54828616D01*
X91616627Y-54862963D01*
X91550443Y-54869481D01*
X91484260Y-54876000D01*
X91395740Y-54876000D01*
X91329557Y-54869481D01*
X91263373Y-54862963D01*
X91150147Y-54828616D01*
X91093533Y-54811443D01*
X90937011Y-54727779D01*
X90937009Y-54727778D01*
X90901271Y-54698448D01*
X90799814Y-54615186D01*
X90688863Y-54479990D01*
X90687222Y-54477991D01*
X90677652Y-54460087D01*
X90603557Y-54321467D01*
X90575793Y-54229941D01*
X90552037Y-54151627D01*
X90534641Y-53975000D01*
X90552037Y-53798373D01*
X90603557Y-53628534D01*
X90603557Y-53628533D01*
X90687221Y-53472011D01*
X90687222Y-53472009D01*
X90716552Y-53436271D01*
X90799814Y-53334814D01*
X90901271Y-53251552D01*
X90937009Y-53222222D01*
X90962778Y-53208448D01*
X91093533Y-53138557D01*
X91150147Y-53121384D01*
X91263373Y-53087037D01*
X91329558Y-53080518D01*
X91395740Y-53074000D01*
X91484260Y-53074000D01*
X91550442Y-53080518D01*
X91550442Y-53080518D01*
G37*
G36*
X89801000Y-54876000D02*
X87999000Y-54876000D01*
X87999000Y-53074000D01*
X89801000Y-53074000D01*
X89801000Y-54876000D01*
X89801000Y-54876000D01*
G37*
G36*
X74561000Y-54876000D02*
X72759000Y-54876000D01*
X72759000Y-53074000D01*
X74561000Y-53074000D01*
X74561000Y-54876000D01*
X74561000Y-54876000D01*
G37*
G36*
X76310442Y-53080518D02*
X76376627Y-53087037D01*
X76489853Y-53121384D01*
X76546467Y-53138557D01*
X76677222Y-53208448D01*
X76702991Y-53222222D01*
X76738729Y-53251552D01*
X76840186Y-53334814D01*
X76923448Y-53436271D01*
X76952778Y-53472009D01*
X76952779Y-53472011D01*
X77036443Y-53628533D01*
X77036443Y-53628534D01*
X77087963Y-53798373D01*
X77105359Y-53975000D01*
X77087963Y-54151627D01*
X77064207Y-54229941D01*
X77036443Y-54321467D01*
X76962348Y-54460087D01*
X76952778Y-54477991D01*
X76951137Y-54479990D01*
X76840186Y-54615186D01*
X76738729Y-54698448D01*
X76702991Y-54727778D01*
X76702989Y-54727779D01*
X76546467Y-54811443D01*
X76489853Y-54828616D01*
X76376627Y-54862963D01*
X76310443Y-54869481D01*
X76244260Y-54876000D01*
X76155740Y-54876000D01*
X76089557Y-54869481D01*
X76023373Y-54862963D01*
X75910147Y-54828616D01*
X75853533Y-54811443D01*
X75697011Y-54727779D01*
X75697009Y-54727778D01*
X75661271Y-54698448D01*
X75559814Y-54615186D01*
X75448863Y-54479990D01*
X75447222Y-54477991D01*
X75437652Y-54460087D01*
X75363557Y-54321467D01*
X75335793Y-54229941D01*
X75312037Y-54151627D01*
X75294641Y-53975000D01*
X75312037Y-53798373D01*
X75363557Y-53628534D01*
X75363557Y-53628533D01*
X75447221Y-53472011D01*
X75447222Y-53472009D01*
X75476552Y-53436271D01*
X75559814Y-53334814D01*
X75661271Y-53251552D01*
X75697009Y-53222222D01*
X75722778Y-53208448D01*
X75853533Y-53138557D01*
X75910147Y-53121384D01*
X76023373Y-53087037D01*
X76089558Y-53080518D01*
X76155740Y-53074000D01*
X76244260Y-53074000D01*
X76310442Y-53080518D01*
X76310442Y-53080518D01*
G37*
G36*
X66941000Y-54876000D02*
X65139000Y-54876000D01*
X65139000Y-53074000D01*
X66941000Y-53074000D01*
X66941000Y-54876000D01*
X66941000Y-54876000D01*
G37*
G36*
X53450442Y-53080518D02*
X53516627Y-53087037D01*
X53629853Y-53121384D01*
X53686467Y-53138557D01*
X53817222Y-53208448D01*
X53842991Y-53222222D01*
X53878729Y-53251552D01*
X53980186Y-53334814D01*
X54063448Y-53436271D01*
X54092778Y-53472009D01*
X54092779Y-53472011D01*
X54176443Y-53628533D01*
X54176443Y-53628534D01*
X54227963Y-53798373D01*
X54245359Y-53975000D01*
X54227963Y-54151627D01*
X54204207Y-54229941D01*
X54176443Y-54321467D01*
X54102348Y-54460087D01*
X54092778Y-54477991D01*
X54091137Y-54479990D01*
X53980186Y-54615186D01*
X53878729Y-54698448D01*
X53842991Y-54727778D01*
X53842989Y-54727779D01*
X53686467Y-54811443D01*
X53629853Y-54828616D01*
X53516627Y-54862963D01*
X53450443Y-54869481D01*
X53384260Y-54876000D01*
X53295740Y-54876000D01*
X53229557Y-54869481D01*
X53163373Y-54862963D01*
X53050147Y-54828616D01*
X52993533Y-54811443D01*
X52837011Y-54727779D01*
X52837009Y-54727778D01*
X52801271Y-54698448D01*
X52699814Y-54615186D01*
X52588863Y-54479990D01*
X52587222Y-54477991D01*
X52577652Y-54460087D01*
X52503557Y-54321467D01*
X52475793Y-54229941D01*
X52452037Y-54151627D01*
X52434641Y-53975000D01*
X52452037Y-53798373D01*
X52503557Y-53628534D01*
X52503557Y-53628533D01*
X52587221Y-53472011D01*
X52587222Y-53472009D01*
X52616552Y-53436271D01*
X52699814Y-53334814D01*
X52801271Y-53251552D01*
X52837009Y-53222222D01*
X52862778Y-53208448D01*
X52993533Y-53138557D01*
X53050147Y-53121384D01*
X53163373Y-53087037D01*
X53229558Y-53080518D01*
X53295740Y-53074000D01*
X53384260Y-53074000D01*
X53450442Y-53080518D01*
X53450442Y-53080518D01*
G37*
G36*
X51701000Y-54876000D02*
X49899000Y-54876000D01*
X49899000Y-53074000D01*
X51701000Y-53074000D01*
X51701000Y-54876000D01*
X51701000Y-54876000D01*
G37*
G36*
X61070442Y-53080518D02*
X61136627Y-53087037D01*
X61249853Y-53121384D01*
X61306467Y-53138557D01*
X61437222Y-53208448D01*
X61462991Y-53222222D01*
X61498729Y-53251552D01*
X61600186Y-53334814D01*
X61683448Y-53436271D01*
X61712778Y-53472009D01*
X61712779Y-53472011D01*
X61796443Y-53628533D01*
X61796443Y-53628534D01*
X61847963Y-53798373D01*
X61865359Y-53975000D01*
X61847963Y-54151627D01*
X61824207Y-54229941D01*
X61796443Y-54321467D01*
X61722348Y-54460087D01*
X61712778Y-54477991D01*
X61711137Y-54479990D01*
X61600186Y-54615186D01*
X61498729Y-54698448D01*
X61462991Y-54727778D01*
X61462989Y-54727779D01*
X61306467Y-54811443D01*
X61249853Y-54828616D01*
X61136627Y-54862963D01*
X61070443Y-54869481D01*
X61004260Y-54876000D01*
X60915740Y-54876000D01*
X60849557Y-54869481D01*
X60783373Y-54862963D01*
X60670147Y-54828616D01*
X60613533Y-54811443D01*
X60457011Y-54727779D01*
X60457009Y-54727778D01*
X60421271Y-54698448D01*
X60319814Y-54615186D01*
X60208863Y-54479990D01*
X60207222Y-54477991D01*
X60197652Y-54460087D01*
X60123557Y-54321467D01*
X60095793Y-54229941D01*
X60072037Y-54151627D01*
X60054641Y-53975000D01*
X60072037Y-53798373D01*
X60123557Y-53628534D01*
X60123557Y-53628533D01*
X60207221Y-53472011D01*
X60207222Y-53472009D01*
X60236552Y-53436271D01*
X60319814Y-53334814D01*
X60421271Y-53251552D01*
X60457009Y-53222222D01*
X60482778Y-53208448D01*
X60613533Y-53138557D01*
X60670147Y-53121384D01*
X60783373Y-53087037D01*
X60849558Y-53080518D01*
X60915740Y-53074000D01*
X61004260Y-53074000D01*
X61070442Y-53080518D01*
X61070442Y-53080518D01*
G37*
G36*
X68690442Y-53080518D02*
X68756627Y-53087037D01*
X68869853Y-53121384D01*
X68926467Y-53138557D01*
X69057222Y-53208448D01*
X69082991Y-53222222D01*
X69118729Y-53251552D01*
X69220186Y-53334814D01*
X69303448Y-53436271D01*
X69332778Y-53472009D01*
X69332779Y-53472011D01*
X69416443Y-53628533D01*
X69416443Y-53628534D01*
X69467963Y-53798373D01*
X69485359Y-53975000D01*
X69467963Y-54151627D01*
X69444207Y-54229941D01*
X69416443Y-54321467D01*
X69342348Y-54460087D01*
X69332778Y-54477991D01*
X69331137Y-54479990D01*
X69220186Y-54615186D01*
X69118729Y-54698448D01*
X69082991Y-54727778D01*
X69082989Y-54727779D01*
X68926467Y-54811443D01*
X68869853Y-54828616D01*
X68756627Y-54862963D01*
X68690443Y-54869481D01*
X68624260Y-54876000D01*
X68535740Y-54876000D01*
X68469557Y-54869481D01*
X68403373Y-54862963D01*
X68290147Y-54828616D01*
X68233533Y-54811443D01*
X68077011Y-54727779D01*
X68077009Y-54727778D01*
X68041271Y-54698448D01*
X67939814Y-54615186D01*
X67828863Y-54479990D01*
X67827222Y-54477991D01*
X67817652Y-54460087D01*
X67743557Y-54321467D01*
X67715793Y-54229941D01*
X67692037Y-54151627D01*
X67674641Y-53975000D01*
X67692037Y-53798373D01*
X67743557Y-53628534D01*
X67743557Y-53628533D01*
X67827221Y-53472011D01*
X67827222Y-53472009D01*
X67856552Y-53436271D01*
X67939814Y-53334814D01*
X68041271Y-53251552D01*
X68077009Y-53222222D01*
X68102778Y-53208448D01*
X68233533Y-53138557D01*
X68290147Y-53121384D01*
X68403373Y-53087037D01*
X68469558Y-53080518D01*
X68535740Y-53074000D01*
X68624260Y-53074000D01*
X68690442Y-53080518D01*
X68690442Y-53080518D01*
G37*
G36*
X127110443Y-51175519D02*
X127176627Y-51182037D01*
X127289853Y-51216384D01*
X127346467Y-51233557D01*
X127485087Y-51307652D01*
X127502991Y-51317222D01*
X127538729Y-51346552D01*
X127640186Y-51429814D01*
X127717209Y-51523668D01*
X127752778Y-51567009D01*
X127752779Y-51567011D01*
X127836443Y-51723533D01*
X127836443Y-51723534D01*
X127887963Y-51893373D01*
X127905359Y-52070000D01*
X127887963Y-52246627D01*
X127853616Y-52359853D01*
X127836443Y-52416467D01*
X127818489Y-52450056D01*
X127752778Y-52572991D01*
X127723448Y-52608729D01*
X127640186Y-52710186D01*
X127538729Y-52793448D01*
X127502991Y-52822778D01*
X127502989Y-52822779D01*
X127346467Y-52906443D01*
X127289853Y-52923616D01*
X127176627Y-52957963D01*
X127110442Y-52964482D01*
X127044260Y-52971000D01*
X126955740Y-52971000D01*
X126889558Y-52964482D01*
X126823373Y-52957963D01*
X126710147Y-52923616D01*
X126653533Y-52906443D01*
X126497011Y-52822779D01*
X126497009Y-52822778D01*
X126461271Y-52793448D01*
X126359814Y-52710186D01*
X126276552Y-52608729D01*
X126247222Y-52572991D01*
X126181511Y-52450056D01*
X126163557Y-52416467D01*
X126146384Y-52359853D01*
X126112037Y-52246627D01*
X126094641Y-52070000D01*
X126112037Y-51893373D01*
X126163557Y-51723534D01*
X126163557Y-51723533D01*
X126247221Y-51567011D01*
X126247222Y-51567009D01*
X126282791Y-51523668D01*
X126359814Y-51429814D01*
X126461271Y-51346552D01*
X126497009Y-51317222D01*
X126514913Y-51307652D01*
X126653533Y-51233557D01*
X126710147Y-51216384D01*
X126823373Y-51182037D01*
X126889557Y-51175519D01*
X126955740Y-51169000D01*
X127044260Y-51169000D01*
X127110443Y-51175519D01*
X127110443Y-51175519D01*
G37*
G36*
X124570443Y-51175519D02*
X124636627Y-51182037D01*
X124749853Y-51216384D01*
X124806467Y-51233557D01*
X124945087Y-51307652D01*
X124962991Y-51317222D01*
X124998729Y-51346552D01*
X125100186Y-51429814D01*
X125177209Y-51523668D01*
X125212778Y-51567009D01*
X125212779Y-51567011D01*
X125296443Y-51723533D01*
X125296443Y-51723534D01*
X125347963Y-51893373D01*
X125365359Y-52070000D01*
X125347963Y-52246627D01*
X125313616Y-52359853D01*
X125296443Y-52416467D01*
X125278489Y-52450056D01*
X125212778Y-52572991D01*
X125183448Y-52608729D01*
X125100186Y-52710186D01*
X124998729Y-52793448D01*
X124962991Y-52822778D01*
X124962989Y-52822779D01*
X124806467Y-52906443D01*
X124749853Y-52923616D01*
X124636627Y-52957963D01*
X124570442Y-52964482D01*
X124504260Y-52971000D01*
X124415740Y-52971000D01*
X124349558Y-52964482D01*
X124283373Y-52957963D01*
X124170147Y-52923616D01*
X124113533Y-52906443D01*
X123957011Y-52822779D01*
X123957009Y-52822778D01*
X123921271Y-52793448D01*
X123819814Y-52710186D01*
X123736552Y-52608729D01*
X123707222Y-52572991D01*
X123641511Y-52450056D01*
X123623557Y-52416467D01*
X123606384Y-52359853D01*
X123572037Y-52246627D01*
X123554641Y-52070000D01*
X123572037Y-51893373D01*
X123623557Y-51723534D01*
X123623557Y-51723533D01*
X123707221Y-51567011D01*
X123707222Y-51567009D01*
X123742791Y-51523668D01*
X123819814Y-51429814D01*
X123921271Y-51346552D01*
X123957009Y-51317222D01*
X123974913Y-51307652D01*
X124113533Y-51233557D01*
X124170147Y-51216384D01*
X124283373Y-51182037D01*
X124349557Y-51175519D01*
X124415740Y-51169000D01*
X124504260Y-51169000D01*
X124570443Y-51175519D01*
X124570443Y-51175519D01*
G37*
G36*
X129650443Y-51175519D02*
X129716627Y-51182037D01*
X129829853Y-51216384D01*
X129886467Y-51233557D01*
X130025087Y-51307652D01*
X130042991Y-51317222D01*
X130078729Y-51346552D01*
X130180186Y-51429814D01*
X130257209Y-51523668D01*
X130292778Y-51567009D01*
X130292779Y-51567011D01*
X130376443Y-51723533D01*
X130376443Y-51723534D01*
X130427963Y-51893373D01*
X130445359Y-52070000D01*
X130427963Y-52246627D01*
X130393616Y-52359853D01*
X130376443Y-52416467D01*
X130358489Y-52450056D01*
X130292778Y-52572991D01*
X130263448Y-52608729D01*
X130180186Y-52710186D01*
X130078729Y-52793448D01*
X130042991Y-52822778D01*
X130042989Y-52822779D01*
X129886467Y-52906443D01*
X129829853Y-52923616D01*
X129716627Y-52957963D01*
X129650442Y-52964482D01*
X129584260Y-52971000D01*
X129495740Y-52971000D01*
X129429558Y-52964482D01*
X129363373Y-52957963D01*
X129250147Y-52923616D01*
X129193533Y-52906443D01*
X129037011Y-52822779D01*
X129037009Y-52822778D01*
X129001271Y-52793448D01*
X128899814Y-52710186D01*
X128816552Y-52608729D01*
X128787222Y-52572991D01*
X128721511Y-52450056D01*
X128703557Y-52416467D01*
X128686384Y-52359853D01*
X128652037Y-52246627D01*
X128634641Y-52070000D01*
X128652037Y-51893373D01*
X128703557Y-51723534D01*
X128703557Y-51723533D01*
X128787221Y-51567011D01*
X128787222Y-51567009D01*
X128822791Y-51523668D01*
X128899814Y-51429814D01*
X129001271Y-51346552D01*
X129037009Y-51317222D01*
X129054913Y-51307652D01*
X129193533Y-51233557D01*
X129250147Y-51216384D01*
X129363373Y-51182037D01*
X129429557Y-51175519D01*
X129495740Y-51169000D01*
X129584260Y-51169000D01*
X129650443Y-51175519D01*
X129650443Y-51175519D01*
G37*
G36*
X132981000Y-52971000D02*
X131179000Y-52971000D01*
X131179000Y-51169000D01*
X132981000Y-51169000D01*
X132981000Y-52971000D01*
X132981000Y-52971000D01*
G37*
M02*
