M48
;DRILL file {KiCad (5.0.1)-3} date 2019-05-30 7:08:01 PM
;FORMAT={-:-/ absolute / inch / decimal}
FMAT,2
INCH,TZ
T1C0.0150
T2C0.0197
T3C0.0354
T4C0.0394
T5C0.0433
T6C0.1181
%
G90
G05
M72
T1
X1.5Y-5.165
X1.5305Y-3.13
X1.6Y-4.22
X1.612Y-3.4924
X1.644Y-4.445
X1.685Y-4.9
X1.7194Y-4.562
X1.725Y-4.345
X1.755Y-4.9
X1.764Y-3.2212
X1.766Y-3.12
X1.766Y-3.155
X1.85Y-4.08
X1.9132Y-5.2642
X1.925Y-5.2077
X1.9475Y-2.065
X1.96Y-4.995
X1.965Y-3.155
X1.975Y-5.29
X1.984Y-3.475
X2.01Y-4.335
X2.02Y-3.475
X2.0245Y-3.845
X2.0473Y-3.4179
X2.0588Y-3.4745
X2.0699Y-3.3924
X2.075Y-5.414
X2.08Y-3.75
X2.0943Y-3.3669
X2.1Y-3.125
X2.106Y-3.444
X2.1297Y-3.486
X2.13Y-4.91
X2.135Y-3.75
X2.136Y-3.674
X2.1433Y-4.7405
X2.15Y-3.005
X2.15Y-3.21
X2.15Y-5.21
X2.185Y-3.78
X2.1992Y-5.29
X2.245Y-2.065
X2.3Y-3.125
X2.3Y-5.43
X2.375Y-3.21
X2.375Y-3.
X2.395Y-3.835
X2.4236Y-3.6736
X2.4262Y-3.5562
X2.44Y-3.355
X2.4552Y-3.6642
X2.4974Y-3.6495
X2.545Y-2.06
X2.545Y-3.795
X2.55Y-3.26
X2.605Y-4.245
X2.7075Y-4.296
X2.7396Y-3.7485
X2.744Y-3.572
X2.7445Y-3.7153
X2.75Y-4.803
X2.756Y-3.4358
X2.7568Y-3.3989
X2.793Y-3.399
X2.7955Y-3.5722
X2.7955Y-3.7404
X2.8267Y-3.7512
X2.8328Y-3.7837
X2.8475Y-2.06
X2.85Y-4.62
X2.85Y-3.15
X2.8752Y-3.4022
X2.9183Y-3.4276
X2.9199Y-4.1152
X2.9202Y-4.0795
X2.9445Y-4.3595
X2.96Y-4.44
X2.965Y-3.955
X3.145Y-2.06
X3.235Y-4.197
X3.2677Y-4.3623
X3.295Y-4.31
X3.3Y-3.26
X3.32Y-4.68
X3.4Y-5.21
X3.4475Y-2.05
X3.4492Y-5.29
X3.495Y-3.125
X3.495Y-4.385
X3.5Y-4.085
X3.5Y-4.125
X3.5Y-4.33
X3.535Y-3.665
X3.545Y-2.995
X3.545Y-3.21
X3.55Y-5.43
X3.5973Y-4.6777
X3.625Y-5.21
X3.6742Y-5.29
X3.695Y-3.385
X3.7241Y-4.197
X3.725Y-3.125
X3.775Y-2.995
X3.775Y-3.21
X3.775Y-5.43
X3.795Y-1.985
X3.798Y-3.66
X3.8156Y-3.6908
X3.822Y-3.6345
X3.8222Y-3.5814
X3.8264Y-4.7152
X3.86Y-3.585
X3.901Y-3.5953
X3.915Y-3.4966
X3.93Y-4.3
X3.94Y-4.39
X3.9929Y-3.6381
X4.Y-4.08
X4.Y-4.26
X4.Y-4.39
X4.0005Y-4.14
X4.1269Y-3.4455
X4.1495Y-3.6355
X4.155Y-3.765
X4.185Y-3.5183
X4.2Y-3.72
X4.2105Y-3.3989
X4.2262Y-4.5923
X4.235Y-4.83
X4.2449Y-3.486
X4.2465Y-4.1965
X4.3Y-4.67
X4.31Y-4.83
X4.31Y-4.89
X4.315Y-3.605
X4.425Y-3.795
X4.446Y-3.729
X4.47Y-2.035
X4.515Y-1.9745
X4.629Y-2.
X4.629Y-3.3785
X4.635Y-4.773
X4.635Y-4.83
X4.6378Y-4.225
X4.66Y-3.315
X4.668Y-3.3785
X4.6718Y-3.412
X4.675Y-4.8
X4.685Y-3.26
X4.7066Y-3.4137
X4.7113Y-3.4473
X4.7472Y-3.447
X4.7745Y-3.4655
X4.795Y-2.035
X4.8Y-5.21
X4.8388Y-3.463
X4.85Y-5.29
X4.885Y-3.7951
X4.8863Y-3.7277
X4.888Y-3.7621
X4.9078Y-3.3248
X4.93Y-3.125
X4.95Y-5.43
X4.98Y-2.995
X4.98Y-3.21
X5.025Y-5.21
X5.05Y-5.29
X5.15Y-3.1236
X5.15Y-3.17
X5.175Y-5.43
X5.2Y-2.9936
X5.2Y-3.2086
X5.215Y-2.9436
X5.25Y-2.155
X5.2805Y-2.9436
X5.4Y-3.4245
X5.4Y-3.5245
X5.4Y-3.6245
X5.4Y-3.733
X5.5Y-5.43
T2
X1.6114Y-6.
X1.6374Y-5.9374
X1.6374Y-6.0626
X1.7Y-5.9114
X1.7Y-6.0886
X1.7626Y-5.9374
X1.7626Y-6.0626
X1.7886Y-6.
X5.3114Y-6.
X5.3374Y-5.9374
X5.3374Y-6.0626
X5.4Y-5.9114
X5.4Y-6.0886
X5.4626Y-5.9374
X5.4626Y-6.0626
X5.4886Y-6.
X1.6114Y-2.1
X1.6374Y-2.0374
X1.6374Y-2.1626
X1.7Y-2.0114
X1.7Y-2.1886
X1.7626Y-2.0374
X1.7626Y-2.1626
X1.7886Y-2.1
X1.8Y-4.2
X1.95Y-4.2
X5.3114Y-2.1
X5.3374Y-2.0374
X5.3374Y-2.1626
X5.4Y-2.0114
X5.4Y-2.1886
X5.4626Y-2.0374
X5.4626Y-2.1626
X5.4886Y-2.1
T3
X5.1Y-4.3016
X5.1Y-4.4984
X4.7Y-3.9016
X4.7Y-4.0984
X5.1Y-3.9016
X5.1Y-4.0984
X4.7Y-4.3016
X4.7Y-4.4984
T4
X4.9Y-2.05
X5.Y-2.05
X5.1Y-2.05
X5.2Y-2.05
X2.Y-2.125
X2.1Y-2.125
X3.5Y-2.125
X3.6Y-2.125
X3.35Y-4.8
X3.45Y-4.8
X3.55Y-4.8
X3.65Y-4.8
X3.75Y-4.8
X3.35Y-3.6
X3.45Y-3.6
X3.55Y-3.6
X3.65Y-3.6
X3.75Y-3.6
X2.3Y-2.125
X2.4Y-2.125
X5.45Y-4.2
X5.45Y-4.3
X1.95Y-3.6
X2.05Y-3.6
X2.15Y-3.6
X2.25Y-3.6
X2.35Y-3.6
X3.4489Y-3.9007
X3.5489Y-3.9007
X3.6489Y-3.9007
X3.7489Y-3.9007
X3.4489Y-3.7504
X3.5489Y-3.7504
X3.6489Y-3.7504
X3.7489Y-3.7504
X1.95Y-4.8
X2.05Y-4.8
X2.15Y-4.8
X2.25Y-4.8
X2.35Y-4.8
X2.9Y-2.125
X3.Y-2.125
X2.7Y-4.73
X2.8Y-4.73
X2.9Y-4.73
X3.Y-4.73
X3.1Y-4.73
X3.2Y-2.125
X3.3Y-2.125
X4.75Y-3.6
X4.85Y-3.6
X4.95Y-3.6
X5.05Y-3.6
X5.15Y-3.6
X5.45Y-4.5
X5.45Y-4.6
X5.45Y-4.7
X5.5Y-3.3
X5.5Y-3.4
X5.5Y-3.5
X5.5Y-3.6
X5.5Y-3.7
X5.5Y-3.8
X4.75Y-4.8
X4.85Y-4.8
X4.95Y-4.8
X5.05Y-4.8
X5.15Y-4.8
X2.6Y-2.125
X2.7Y-2.125
X5.45Y-4.9
X5.45Y-5.
T5
X1.55Y-3.9
X1.55Y-4.5
X1.65Y-3.9
X1.65Y-4.
X1.65Y-4.5
X1.75Y-3.9
X1.75Y-4.5
X1.85Y-3.9
X1.85Y-4.
X1.85Y-4.5
X1.95Y-3.9
X1.95Y-4.
X1.95Y-4.5
X2.05Y-3.9
X2.05Y-4.
X2.05Y-4.5
X2.15Y-3.9
X2.15Y-4.1
X2.15Y-4.2
X2.15Y-4.5
X2.25Y-3.9
X2.25Y-4.1
X2.25Y-4.2
X2.25Y-4.5
X2.35Y-3.9
X2.35Y-4.1
X2.35Y-4.2
X2.35Y-4.5
X2.45Y-3.9
X2.45Y-4.1
X2.45Y-4.2
X2.45Y-4.5
X2.55Y-3.9
X2.55Y-4.1
X2.55Y-4.2
X2.55Y-4.5
X2.65Y-3.9
X2.65Y-4.1
X2.65Y-4.2
X2.65Y-4.5
X2.75Y-3.9
X2.75Y-4.1
X2.75Y-4.2
X2.75Y-4.5
X2.85Y-3.9
X2.85Y-4.
X2.85Y-4.1
X2.85Y-4.2
X2.85Y-4.3
X2.85Y-4.4
X2.85Y-4.5
T6
X1.7Y-6.
X5.4Y-6.
X1.7Y-2.1
X5.4Y-2.1
T0
M30
